<?xml version="1.0" encoding="UTF-8" standalone="no"?>
<!DOCTYPE svg  PUBLIC '-//W3C//DTD SVG 1.1//EN'  'http://www.w3.org/Graphics/SVG/1.1/DTD/svg11.dtd'>
<svg xmlns="http://www.w3.org/2000/svg" version="1.1">
<defs>
<font id="Intro-Inline" horiz-adv-x="712">
<font-face panose-1="2 0 0 0 0 0 0 0 0 0" font-weight="400" bbox="-24 -248.204 1069 949" unicode-range="U+0020-2026" underline-thickness="50" cap-height="700" ascent="750" units-per-em="1000" underline-position="-100" font-family="Intro Inline" x-height="349" descent="-250"/>
<missing-glyph horiz-adv-x="275"/>
<glyph glyph-name=".notdef" horiz-adv-x="275"/>
<glyph d="M354 585l-188 -407h379l-190 407h-1zM534 0l-41 88h-276l-41 -88h-175v26l315 683h77l316 -683v-26h-175zM608 68l-251 539h-6l-249 -539h13l47 99h387l46 -99h13zM354 410l74 -161h-146z" glyph-name="A" unicode="A"/>
<glyph d="M387 616h-204v-261h204c72 0 126 59 126 130c0 70 -56 131 -126 131zM606 485c0 -42 -21 -93 -55 -121c57 -29 84 -81 84 -143c-1 -122 -75 -221 -218 -221h-328v700h299c121 0 218 -94 218 -215zM387 625h-214v-551h242c76 0 137 72 137 147c0 66 -51 128 -118 131v4 c51 12 89 77 89 129c0 76 -61 140 -136 140zM415 346h-232v-262h232c69 0 127 66 127 137s-58 125 -127 125zM404 274c72 0 73 -115 1 -115h-143v115h142zM262 540h112c72 0 72 -111 1 -111h-113v111z" glyph-name="B" unicode="B" horiz-adv-x="686"/>
<glyph d="M47 350c1 238 181 358 359 358c145 0 302 -79 329 -266h-176c-25 71 -78 103 -153 103c-105 0 -174 -79 -174 -195c0 -103 68 -193 174 -194c76 0 137 38 156 113h176c-26 -198 -183 -276 -332 -276c-178 -1 -358 119 -359 357zM632 206h-12c-44 -85 -121 -126 -214 -126 c-129 0 -261 96 -261 270c0 175 132 272 261 272c90 0 166 -38 210 -116h12c-46 83 -128 125 -222 125c-135 0 -271 -99 -271 -281c0 -181 136 -281 271 -280c96 0 184 48 226 136z" glyph-name="C" unicode="C" horiz-adv-x="786"/>
<glyph d="M353 700c456 -2 456 -698 0 -700h-264v700h264zM176 625v-550h175c348 0 348 550 0 550h-175zM351 86c336 1 336 527 0 529h-166v-529h166zM268 163v374h85c223 0 223 -374 0 -374h-85z" glyph-name="D" unicode="D" horiz-adv-x="742"/>
<glyph d="M173 626v-552h294v10h-283v273h254v10h-254v249h274v10h-285zM526 700v-160h-259v-99h238v-159h-238v-123h268v-159h-446v700h437z" glyph-name="E" unicode="E" horiz-adv-x="600"/>
<glyph d="M496 227h-225v-227h-182v700h436v-160h-254v-153h225v-160zM458 616v9h-284v-557h11v233h243v11h-243v304h273z" glyph-name="F" unicode="F" horiz-adv-x="574"/>
<glyph d="M46 350c1 239 181 359 359 359c141 -1 288 -74 322 -248h-176c-29 60 -75 84 -146 84c-113 0 -174 -88 -174 -195c0 -116 68 -192 174 -192c72 0 118 19 150 86h-149v155h331c4 -70 4 -137 -20 -205c-50 -146 -183 -202 -312 -202c-178 0 -358 119 -359 358zM474 330v-11 h174c-2 -144 -104 -239 -243 -239c-152 0 -261 114 -261 270c0 154 109 272 261 271c82 0 162 -36 205 -107h12c-45 78 -134 116 -217 116c-136 0 -272 -98 -272 -280s136 -281 272 -280c142 0 254 102 254 249v11h-185z" glyph-name="G" unicode="G" horiz-adv-x="790"/>
<glyph d="M204 83h-106v-10h220v10h-104v533h96v10h-203v-10h97v-533zM297 157h89v-157h-355v157h89v387h-82v156h341v-156h-82v-387z" glyph-name="I" unicode="I" horiz-adv-x="414"/>
<glyph d="M578 700v-467c0 -153 -126 -241 -270 -241s-262 88 -262 241v91h169v-88c0 -55 41 -84 93 -84s87 28 87 84v305h-102v159h285zM134 256h-11v-20c0 -105 81 -169 182 -169c103 0 188 60 188 169v391h-133v-10h122v-381c0 -105 -78 -159 -176 -159c-96 0 -172 58 -172 159 v20z" glyph-name="J" unicode="J" horiz-adv-x="662"/>
<glyph d="M187 346h100c30 0 67 5 96 13l177 -290h12l-180 294c123 42 161 151 160 269h-10c0 -115 -35 -201 -118 -245c-36 -19 -86 -33 -138 -33h-99v278h-13v-563h13v277zM272 0h-182v700h182v-265h13c179 0 170 134 170 265h184c0 -143 4 -275 -135 -364l190 -308v-28h-199 l-154 271c-24 -4 -46 -4 -69 -4v-267z" glyph-name="K" unicode="K" horiz-adv-x="708"/>
<glyph d="M268 700v-539h254v-161h-434v700h180zM454 76v9h-270v547h-11v-556h281z" glyph-name="L" unicode="L" horiz-adv-x="556"/>
<glyph d="M428 398l279 304h64v-702h-183v312l-149 -156h-20l-148 156v-312h-183v702h66zM675 69h10v464h-14l-243 -256l-240 256h-13v-464h10v451l243 -258l247 258v-451z" glyph-name="M" unicode="M" horiz-adv-x="860"/>
<glyph d="M627 -1l-353 345v-344h-185v703h65l354 -346v343h183v-701h-64zM174 559v-490h12v473c70 -67 140 -136 208 -203c67 -66 134 -131 203 -198h8v491h-11v-474c-70 69 -139 138 -210 204c-65 66 -132 132 -199 197h-11z" glyph-name="N" unicode="N" horiz-adv-x="780"/>
<glyph d="M134 349c0 -376 543 -376 543 0s-543 375 -543 0zM764 349c0 -485 -718 -485 -718 0c0 484 718 484 718 0zM230 349c0 252 351 252 351 0c0 -254 -351 -254 -351 0zM667 349c0 358 -523 365 -523 0c0 -366 523 -359 523 0z" glyph-name="O" unicode="O" horiz-adv-x="810"/>
<glyph d="M398 254c222 2 223 370 0 370h-226v-557h11v187h215zM268 0h-179v700h308c335 -1 335 -521 0 -521h-129v-179zM183 615h215c207 0 210 -349 0 -349h-215v349zM396 340c98 0 104 199 0 200c-42 1 -87 0 -128 0v-200h128z" glyph-name="P" unicode="P" horiz-adv-x="694"/>
<glyph d="M781 0h-182l-17 32c-212 -113 -535 -6 -535 317c0 484 718 484 718 0c0 -83 -21 -152 -56 -207l72 -119v-23zM655 66h14l-61 86c43 47 70 112 70 197c0 376 -543 375 -543 0c0 -287 316 -355 466 -205zM231 349c0 252 350 252 350 0c0 -254 -350 -254 -350 0zM669 349 c0 358 -524 365 -524 0c0 -366 524 -359 524 0z" glyph-name="Q" unicode="Q" horiz-adv-x="814"/>
<glyph d="M396 615c208 0 211 -323 0 -323h-215v323h215zM181 281h215c7 0 14 1 20 1l130 -216h12l-101 165l-30 53c189 31 183 340 -31 340h-225v-557h10v214zM543 248l137 -222v-26h-200l-120 206h-93v-206h-179v700h307c275 -1 325 -332 148 -452zM395 367c97 0 102 172 0 173 c-42 1 -86 0 -128 0v-173h128z" glyph-name="R" unicode="R" horiz-adv-x="699"/>
<glyph d="M213 214c0 -89 219 -87 219 -5c0 49 -58 57 -128 61c-152 11 -252 63 -254 215c-6 302 538 302 534 0h-170c0 93 -188 85 -194 2c-4 -53 48 -64 111 -71c139 -15 275 -33 275 -208c0 -294 -570 -302 -566 6h173zM476 549h13c-75 141 -364 105 -360 -64 c3 -120 87 -138 189 -146c97 -7 194 -9 194 -130c0 -155 -282 -186 -361 -59h-12c72 -143 384 -111 384 59c0 124 -101 133 -203 141c-98 7 -179 23 -179 135c-1 157 260 189 335 64z" glyph-name="S" unicode="S" horiz-adv-x="648"/>
<glyph d="M192 540h-172v160h520v-160h-171v-540h-177v540zM276 67h10c0 184 -1 366 -2 549h188v9h-385v-9h189v-549z" glyph-name="T" unicode="T" horiz-adv-x="562"/>
<glyph d="M360 151c52 0 106 28 106 85v464h170v-467c0 -154 -132 -243 -276 -243c-143 0 -276 89 -276 243v467h169v-464c0 -57 55 -85 107 -85zM360 65c100 0 198 62 198 171v397h-11v-397c0 -104 -92 -160 -187 -160s-187 56 -187 160v397h-11v-397c0 -109 98 -171 198 -171z " glyph-name="U" unicode="U" horiz-adv-x="722"/>
<glyph d="M576 633l-223 -518h-1l-226 518h-13l237 -540h5l233 540h-12zM186 700l164 -403h5l160 403h172v-27l-297 -681h-76l-300 681v27h172z" glyph-name="V" unicode="V" horiz-adv-x="702"/>
<glyph d="M336 383l-165 250h-11l171 -262l-197 -304h14l188 292l189 -292h12l-196 304l170 262h-11zM339 220h-6l-128 -220h-193v27l226 344l-202 302v27h186l111 -182h5l112 182h185v-27l-202 -302l227 -344v-27h-193z" glyph-name="X" unicode="X" horiz-adv-x="673"/>
<glyph d="M131 633l196 -316v-250h11v250l196 316h-13l-188 -304l-189 304h-13zM421 294v-294h-177v294l-235 379v27h193l127 -233h7l127 233h194v-27z" glyph-name="Y" unicode="Y" horiz-adv-x="665"/>
<glyph d="M579 700v-27l-284 -513h287v-160h-559v27l283 513h-257v160h530zM109 615h330l-287 -540h355v9h-340l287 541h-345v-10z" glyph-name="Z" unicode="Z" horiz-adv-x="611"/>
<glyph d="M431 689h86l119 -372h3l31 119l89 264h174v-27l-243 -680h-103l-112 337h-3l-112 -337h-99l-246 680v27h174l90 -264l31 -119h3zM313 115h-1l-186 518h-12l195 -540h7l158 469l158 -469h7l196 540h-14l-185 -518h-1l-157 462h-9z" glyph-name="W" unicode="W" horiz-adv-x="949"/>
<glyph d="M338 713c145 0 263 -88 263 -241v-245c0 -153 -118 -241 -263 -241c-142 0 -261 88 -261 241v245c0 153 119 241 261 241zM338 61c101 0 184 63 184 170v238c0 108 -83 169 -184 169c-98 0 -182 -61 -182 -169v-238c0 -107 84 -170 182 -170zM338 145c53 0 94 29 94 86 v238c0 55 -41 84 -94 84c-51 0 -91 -29 -91 -84v-238c0 -57 40 -86 91 -86zM338 629c96 0 172 -57 172 -160v-238c0 -102 -76 -161 -172 -161c-93 0 -171 59 -171 161v238c0 103 78 160 171 160z" glyph-name="zero" unicode="0" horiz-adv-x="680"/>
<glyph d="M126 549h-95v151h269v-548h111v-152h-395v152h110v397zM217 76v556h-120v-8h111v-548h-125v-8h261v8h-127z" glyph-name="one" unicode="1" horiz-adv-x="428"/>
<glyph d="M288 412c35 47 62 139 -26 139c-40 0 -69 -19 -69 -68h-152c-2 151 100 225 224 228c201 5 289 -194 185 -355l-141 -196h208v-160h-492v27zM376 383c79 114 43 251 -113 253c-64 1 -118 -26 -141 -89h11c22 57 73 82 130 80c148 -3 178 -131 104 -239l-214 -313h288v10 h-271z" glyph-name="two" unicode="2" horiz-adv-x="548"/>
<glyph d="M41 214h157c1 -46 31 -69 79 -69c49 0 76 37 77 84c-1 101 -101 97 -177 94v24l93 194h-202v159h445v-26l-129 -236c111 -28 143 -118 143 -208c1 -119 -84 -244 -246 -244c-53 0 -91 11 -125 30c-66 37 -115 108 -115 198zM135 625v-8h253l-116 -226 c97 0 161 -52 163 -162c-2 -88 -70 -158 -159 -159c-64 0 -119 31 -139 82h-10c22 -55 79 -91 148 -91c95 1 167 75 169 168c0 100 -63 169 -159 169l119 227h-269z" glyph-name="three" unicode="3" horiz-adv-x="570"/>
<glyph d="M492 133v-133h-166v133h-305v78l279 489h192v-421h60v-146h-60zM403 67h10v133h75v8h-75v422h-69l-237 -419v-11h296v-133zM344 491l-112 -212h101v105l13 107h-2zM403 208h-286l232 414h54v-414z" glyph-name="four" unicode="4" horiz-adv-x="576"/>
<glyph d="M213 548v-89c163 10 321 -21 322 -229c1 -120 -84 -244 -246 -244c-54 0 -92 11 -125 29c-65 37 -115 108 -116 199h159c1 -46 31 -68 78 -68c49 0 76 36 77 84c-7 119 -216 82 -297 80v390h436v-152h-288zM437 629h-304v-243c125 5 307 24 309 -156 c-1 -89 -70 -159 -159 -160c-63 -1 -118 32 -137 83h-10c20 -56 78 -92 147 -91c94 0 168 74 168 168c0 181 -179 174 -309 165v225h295v9z" glyph-name="five" unicode="5" horiz-adv-x="578"/>
<glyph d="M490 230c0 105 -81 164 -181 164c-47 0 -91 -13 -122 -36l-2 1c54 94 111 187 165 282h-10l-189 -320c-17 -30 -25 -56 -25 -91c0 -105 80 -167 183 -167c100 0 181 62 181 167zM279 706h199l-148 -252c148 11 246 -76 246 -224c0 -167 -115 -241 -267 -241 c-154 0 -269 74 -269 241c0 48 10 96 37 137zM309 141c59 0 87 32 87 89c0 56 -28 88 -87 88c-60 0 -90 -32 -90 -88c0 -57 30 -89 90 -89zM309 385c96 0 171 -56 171 -155c0 -101 -75 -157 -171 -157c-98 0 -173 56 -173 157c0 99 75 155 173 155z" glyph-name="six" unicode="6" horiz-adv-x="617"/>
<glyph d="M532 700v-27l-283 -673h-184l225 540h-269v160h511zM177 65h11l235 560h-343v-9h328z" glyph-name="seven" unicode="7" horiz-adv-x="537"/>
<glyph d="M480 398c165 -121 106 -410 -177 -410c-285 0 -344 291 -177 411c-102 111 -41 313 177 313s278 -204 177 -314zM255 389v-2c-193 -40 -176 -325 48 -325c223 0 239 287 44 326v0c145 38 129 253 -44 253c-172 0 -188 -212 -48 -252zM303 71c-228 0 -228 312 0 312 c227 0 227 -312 0 -312zM303 391c-176 0 -176 240 0 240s176 -240 0 -240zM303 139c121 0 121 174 0 174c-120 0 -120 -174 0 -174zM303 462c78 0 78 102 0 102c-79 0 -79 -102 0 -102z" glyph-name="eight" unicode="8" horiz-adv-x="605"/>
<glyph d="M120 470c0 -105 80 -166 181 -166c46 0 90 15 123 38l1 -1c-55 -94 -111 -190 -166 -284h12l187 322c17 29 25 55 25 91c0 104 -79 165 -182 165c-102 0 -181 -61 -181 -165zM329 -7h-199l149 253c-148 -11 -244 76 -244 224c0 165 112 240 266 240 c153 0 269 -75 269 -240c0 -48 -9 -97 -37 -138zM301 557c-59 0 -88 -32 -88 -87c0 -57 29 -88 88 -88c61 0 88 31 88 88c0 55 -27 87 -88 87zM301 314c-96 0 -173 56 -173 156c0 99 77 156 173 156c97 0 172 -57 172 -156c0 -100 -75 -156 -172 -156z" glyph-name="nine" unicode="9" horiz-adv-x="609"/>
<glyph d="M534 524h-158c0 25 -19 40 -58 40c-77 0 -79 -106 2 -106h30v-146h-32c-120 0 -120 -173 0 -173c52 0 91 34 91 89v233h218v-155h-62v-78c0 -156 -95 -240 -247 -240c-286 0 -346 288 -179 408c-101 111 -41 316 179 316c122 0 222 -60 216 -188zM440 572h7 c-17 40 -60 69 -130 69c-172 0 -186 -215 -45 -255v-1c-192 -40 -179 -323 45 -323c100 0 175 62 175 166v150h85v9h-94v-159c0 -99 -72 -157 -166 -157c-227 0 -224 292 -17 308v11c-157 17 -157 242 17 242c57 0 103 -17 123 -60z" glyph-name="ampersand" unicode="&amp;" horiz-adv-x="650"/>
<glyph d="M244 153c-22 -51 -43 -102 -67 -153h-176v27l313 673h478v-159h-228v-101h208v-159h-208v-122h237v-159h-404v153h-153zM399 522l-86 -207h84l3 207h-1zM375 615h101v-372h-276c57 125 116 248 175 372zM195 234h281v-159h257v10h-248v272h219v10h-219v248h239v11h-355 l-263 -558h9c27 55 54 111 80 166z" glyph-name="AE" unicode="Æ" horiz-adv-x="866"/>
<glyph d="M548 626v-31c-44 21 -94 36 -143 35c-137 -1 -270 -94 -270 -280c0 -241 215 -336 413 -247v-28h277v10h-267v272h237v10h-237v248h258v11h-268zM494 0c-222 -50 -448 67 -448 350s235 400 452 350h386v-159h-249v-101h228v-159h-228v-122h258v-159h-399zM230 350 c0 154 141 213 243 179v-360c-102 -34 -243 25 -243 181zM144 350c0 -234 209 -324 404 -237v472c-45 20 -93 35 -143 35c-131 0 -261 -89 -261 -270z" glyph-name="OE" unicode="Œ" horiz-adv-x="958"/>
<glyph d="M548 626v-31c-44 21 -94 36 -143 35c-137 -1 -270 -94 -270 -280c0 -241 215 -336 413 -247v-28h277v10h-267v272h237v10h-237v248h258v11h-268zM494 0c-222 -50 -448 67 -448 350s235 400 452 350h386v-159h-249v-101h228v-159h-228v-122h258v-159h-399zM230 350 c0 154 141 213 243 179v-360c-102 -34 -243 25 -243 181zM144 350c0 -234 209 -324 404 -237v472c-45 20 -93 35 -143 35c-131 0 -261 -89 -261 -270z" glyph-name="oe" unicode="œ" horiz-adv-x="958"/>
<glyph d="M244 153c-22 -51 -43 -102 -67 -153h-176v27l313 673h478v-159h-228v-101h208v-159h-208v-122h237v-159h-404v153h-153zM399 522l-86 -207h84l3 207h-1zM375 615h101v-372h-276c57 125 116 248 175 372zM195 234h281v-159h257v10h-248v272h219v10h-219v248h239v11h-355 l-263 -558h9c27 55 54 111 80 166z" glyph-name="ae" unicode="æ" horiz-adv-x="866"/>
<glyph d="M659 617v0c63 -61 104 -149 104 -265c0 -292 -262 -408 -468 -347l-42 -69h-171v20l76 124c-67 60 -112 151 -112 272c0 298 271 413 480 345l41 67h170v-19zM623 695v0h-11l-61 -101c-43 26 -93 39 -144 39c-137 2 -274 -92 -274 -281c0 -104 39 -184 125 -241l-61 -105 h10l60 99c39 -23 101 -35 147 -34c133 3 263 97 263 281c0 97 -36 183 -117 236zM231 352v0c0 253 349 253 349 0c0 -252 -349 -252 -349 0zM667 352v0c0 359 -524 366 -524 0c0 -365 524 -359 524 0z" glyph-name="oslash" unicode="ø" horiz-adv-x="809"/>
<glyph d="M659 617v0c63 -61 104 -149 104 -265c0 -292 -262 -408 -468 -347l-42 -69h-171v20l76 124c-67 60 -112 151 -112 272c0 298 271 413 480 345l41 67h170v-19zM623 695v0h-11l-61 -101c-43 26 -93 39 -144 39c-137 2 -274 -92 -274 -281c0 -104 39 -184 125 -241l-61 -105 h10l60 99c39 -23 101 -35 147 -34c133 3 263 97 263 281c0 97 -36 183 -117 236zM231 352v0c0 253 349 253 349 0c0 -252 -349 -252 -349 0zM667 352v0c0 359 -524 366 -524 0c0 -365 524 -359 524 0z" glyph-name="Oslash" unicode="Ø" horiz-adv-x="809"/>
<glyph d="M472 271c6 -67 43 -129 95 -174c-40 -25 -88 -39 -137 -39c-136 0 -253 112 -253 252c0 139 113 253 253 253s254 -114 254 -253v-145c-60 26 -95 82 -95 145c0 88 -71 159 -159 159c-89 0 -160 -71 -160 -159c0 -91 72 -160 160 -160c8 0 16 0 23 1l-3 10 c-7 -1 -13 -1 -20 -1c-82 0 -150 66 -150 150c0 82 67 148 150 148c82 0 149 -66 149 -148c0 -69 38 -134 108 -158c29 45 47 99 47 158c0 167 -137 304 -304 304c-166 0 -303 -137 -303 -304c0 -168 137 -303 303 -303c63 0 119 19 168 51c29 -16 67 -33 101 -36 c-78 -83 -151 -108 -269 -108c-222 0 -394 177 -394 396c0 218 176 395 394 395s395 -177 395 -395c0 -91 -29 -195 -100 -257c-125 5 -241 130 -238 254c1 32 -26 60 -57 60s-59 -27 -58 -59c0 -29 27 -57 58 -57c18 0 31 9 42 20z" glyph-name="at" unicode="@" horiz-adv-x="862"/>
<glyph d="M190 214c-17 158 137 184 145 297c2 37 -35 56 -68 56c-35 -1 -68 -21 -68 -69h-151c-3 152 100 224 224 227c146 4 235 -93 235 -210c0 -148 -147 -181 -140 -301h-177zM278 5c-54 0 -98 36 -98 91c0 56 44 92 98 92c55 0 99 -36 99 -92c0 -55 -44 -91 -99 -91zM278 56 c26 0 46 15 46 40s-20 41 -46 41c-24 0 -44 -16 -44 -41s20 -40 44 -40zM278 47c31 0 55 18 55 49s-24 49 -55 49c-30 0 -54 -18 -54 -49s24 -49 54 -49zM278 275h11c30 85 135 143 140 239c3 76 -52 136 -158 137c-66 1 -119 -27 -141 -90h11c21 58 72 82 128 81 c102 -2 153 -58 150 -128c-5 -96 -111 -148 -141 -239z" glyph-name="question" unicode="?" horiz-adv-x="550"/>
<glyph d="M179 5c-55 0 -98 36 -98 91c0 56 43 92 98 92s98 -36 98 -92c0 -55 -43 -91 -98 -91zM92 214l-15 501h200l-11 -501h-174zM174 283h9v363h-9v-363zM179 56c25 0 45 15 45 40s-20 41 -45 41c-24 0 -45 -16 -45 -41s21 -40 45 -40zM179 47c30 0 54 18 54 49s-24 49 -54 49 s-54 -18 -54 -49s24 -49 54 -49z" glyph-name="exclam" unicode="!" horiz-adv-x="353"/>
<glyph d="M236 78c0 -14 -3 -23 -7 -37l-44 -130h-101l25 79c-41 10 -71 42 -71 88c0 56 44 93 98 93c56 0 100 -37 100 -93zM136 38c26 0 46 14 46 40s-20 41 -46 41c-24 0 -44 -15 -44 -41s20 -40 44 -40zM136 29c14 0 27 5 37 11l-28 -86h8l33 98c2 10 4 16 4 26 c0 31 -24 48 -54 48c-29 0 -53 -17 -53 -48s24 -49 53 -49z" glyph-name="comma" unicode="," horiz-adv-x="284"/>
<glyph d="M140 -6c-56 0 -100 36 -100 91c0 56 44 93 100 93c54 0 98 -37 98 -93c0 -55 -44 -91 -98 -91zM140 45c24 0 44 14 44 40s-20 41 -44 41c-26 0 -46 -15 -46 -41s20 -40 46 -40zM140 36c28 0 53 18 53 49s-25 48 -53 48c-30 0 -54 -17 -54 -48s24 -49 54 -49z" glyph-name="period" unicode="." horiz-adv-x="284"/>
<glyph d="M151 -6c-56 0 -100 36 -100 91c0 56 44 93 100 93c54 0 98 -37 98 -93c0 -55 -44 -91 -98 -91zM151 45c24 0 44 14 44 40s-20 41 -44 41c-26 0 -46 -15 -46 -41s20 -40 46 -40zM151 36c28 0 53 18 53 49s-25 48 -53 48c-30 0 -54 -17 -54 -48s24 -49 54 -49zM151 318 c-56 0 -100 36 -100 91c0 56 44 93 100 93c54 0 98 -37 98 -93c0 -55 -44 -91 -98 -91zM151 369c24 0 44 14 44 40s-20 41 -44 41c-26 0 -46 -15 -46 -41s20 -40 46 -40zM151 360c28 0 53 18 53 49s-25 48 -53 48c-30 0 -54 -17 -54 -48s24 -49 54 -49z" glyph-name="colon" unicode=":" horiz-adv-x="310"/>
<glyph d="M144 318c-56 0 -100 36 -100 91c0 56 44 93 100 93c54 0 98 -37 98 -93c0 -55 -44 -91 -98 -91zM144 369c24 0 44 14 44 40s-20 41 -44 41c-26 0 -46 -15 -46 -41s20 -40 46 -40zM144 360c28 0 53 18 53 49s-25 48 -53 48c-30 0 -54 -17 -54 -48s24 -49 54 -49zM242 84 c0 -14 -3 -23 -7 -37l-44 -130h-101l25 79c-41 10 -71 42 -71 88c0 56 44 93 98 93c56 0 100 -37 100 -93zM142 44c26 0 46 14 46 40s-20 41 -46 41c-24 0 -44 -15 -44 -41s20 -40 44 -40zM142 35c14 0 27 5 37 11l-28 -86h8l33 98c2 10 4 16 4 26c0 31 -24 48 -54 48 c-29 0 -53 -17 -53 -48s24 -49 53 -49z" glyph-name="semicolon" unicode=";" horiz-adv-x="299"/>
<glyph d="M176 529c-74 0 -134 48 -134 123c0 74 60 121 134 121c73 0 132 -47 132 -121c0 -75 -59 -123 -132 -123zM176 598c32 0 60 19 60 54c0 34 -28 54 -60 54c-34 0 -61 -20 -61 -54c0 -35 27 -54 61 -54zM176 586c39 0 72 24 72 66c0 41 -33 65 -72 65 c-41 0 -73 -24 -73 -65c0 -42 32 -66 73 -66z" glyph-name="ring" unicode="˚" horiz-adv-x="364"/>
<glyph d="M109 745h66l65 -76l61 76h69l-86 -106h10l87 106h56v-16l-106 -143h-182l-107 143v16h56l86 -106h11z" glyph-name="caron" unicode="ˇ" horiz-adv-x="485"/>
<glyph d="M369 585h-66l-65 76l-61 -76h-69l86 106h-10l-87 -106h-56v16l106 143h182l107 -143v-16h-56l-86 106h-11z" glyph-name="circumflex" unicode="ˆ" horiz-adv-x="481"/>
<glyph d="M234 566l-53 101l-11 -2l53 -99h-59l-103 117v15l152 51l76 -167v-16h-55z" glyph-name="grave" unicode="`" horiz-adv-x="349"/>
<glyph d="M166 667l-53 -101h-55v16l76 167l152 -51v-15l-103 -117h-59l53 99z" glyph-name="acute" unicode="´" horiz-adv-x="336"/>
<glyph d="M164 567c-55 0 -99 36 -99 91c0 57 44 92 99 92s100 -35 100 -92c0 -55 -45 -91 -100 -91zM429 567c-55 0 -99 36 -99 91c0 57 44 92 99 92c56 0 99 -35 99 -92c0 -55 -43 -91 -99 -91zM429 619c25 0 46 14 46 39c0 27 -21 41 -46 41s-45 -14 -45 -41 c0 -25 20 -39 45 -39zM429 610c30 0 54 17 54 48s-24 50 -54 50c-31 0 -55 -19 -55 -50s26 -48 55 -48zM164 619c26 0 46 14 46 39c0 27 -20 41 -46 41c-24 0 -45 -14 -45 -41c0 -25 21 -39 45 -39zM164 610c31 0 55 17 55 48s-24 50 -55 50c-30 0 -54 -19 -54 -50 s24 -48 54 -48z" glyph-name="dieresis" unicode="¨" horiz-adv-x="602"/>
<glyph d="M101 -84l26 99l49 -1l-15 -85c39 -10 69 -35 55 -78c-15 -44 -63 -50 -103 -40l-2 -9c46 -12 99 -5 115 46c14 44 -13 77 -53 89l13 76l53 -2l-15 -66c64 -10 82 -68 61 -120c-36 -89 -157 -88 -227 -44l8 93c22 -18 75 -20 83 7c8 28 -26 35 -48 35z" glyph-name="cedilla" unicode="¸" horiz-adv-x="347"/>
<glyph d="M124 568c-29 11 -57 23 -86 36c35 106 108 149 209 108c31 -12 82 -38 97 12c30 -13 60 -25 90 -39c-21 -97 -103 -150 -194 -114c-30 12 -95 50 -116 -3zM101 632l7 -3c31 34 76 33 126 11c56 -23 105 -25 137 17l-8 4c-30 -36 -76 -33 -126 -11 c-53 23 -103 23 -136 -18z" glyph-name="tilde" unicode="˜" horiz-adv-x="479"/>
<glyph glyph-name="space" unicode=" " horiz-adv-x="275"/>
<glyph d="M204 83h-106v-10h220v10h-104v533h96v10h-203v-10h97v-533zM297 157h89v-157h-355v157h89v387h-82v156h341v-156h-82v-387z" glyph-name="dotlessi" unicode="ı" horiz-adv-x="414"/>
<glyph d="M354 585l-188 -407h379l-190 407h-1zM534 0l-41 88h-276l-41 -88h-175v26l315 683h77l316 -683v-26h-175zM608 68l-251 539h-6l-249 -539h13l47 99h387l46 -99h13zM354 410l74 -161h-146z" glyph-name="a" unicode="a"/>
<glyph d="M387 616h-204v-261h204c72 0 126 59 126 130c0 70 -56 131 -126 131zM606 485c0 -42 -21 -93 -55 -121c57 -29 84 -81 84 -143c-1 -122 -75 -221 -218 -221h-328v700h299c121 0 218 -94 218 -215zM387 625h-214v-551h242c76 0 137 72 137 147c0 66 -51 128 -118 131v4 c51 12 89 77 89 129c0 76 -61 140 -136 140zM415 346h-232v-262h232c69 0 127 66 127 137s-58 125 -127 125zM404 274c72 0 73 -115 1 -115h-143v115h142zM262 540h112c72 0 72 -111 1 -111h-113v111z" glyph-name="b" unicode="b" horiz-adv-x="686"/>
<glyph d="M47 350c1 238 181 358 359 358c145 0 302 -79 329 -266h-176c-25 71 -78 103 -153 103c-105 0 -174 -79 -174 -195c0 -103 68 -193 174 -194c76 0 137 38 156 113h176c-26 -198 -183 -276 -332 -276c-178 -1 -358 119 -359 357zM632 206h-12c-44 -85 -121 -126 -214 -126 c-129 0 -261 96 -261 270c0 175 132 272 261 272c90 0 166 -38 210 -116h12c-46 83 -128 125 -222 125c-135 0 -271 -99 -271 -281c0 -181 136 -281 271 -280c96 0 184 48 226 136z" glyph-name="c" unicode="c" horiz-adv-x="786"/>
<glyph d="M353 700c456 -2 456 -698 0 -700h-264v700h264zM176 625v-550h175c348 0 348 550 0 550h-175zM351 86c336 1 336 527 0 529h-166v-529h166zM268 163v374h85c223 0 223 -374 0 -374h-85z" glyph-name="d" unicode="d" horiz-adv-x="742"/>
<glyph d="M173 626v-552h294v10h-283v273h254v10h-254v249h274v10h-285zM526 700v-160h-259v-99h238v-159h-238v-123h268v-159h-446v700h437z" glyph-name="e" unicode="e" horiz-adv-x="600"/>
<glyph d="M496 227h-225v-227h-182v700h436v-160h-254v-153h225v-160zM458 616v9h-284v-557h11v233h243v11h-243v304h273z" glyph-name="f" unicode="f" horiz-adv-x="574"/>
<glyph d="M46 350c1 239 181 359 359 359c141 -1 288 -74 322 -248h-176c-29 60 -75 84 -146 84c-113 0 -174 -88 -174 -195c0 -116 68 -192 174 -192c72 0 118 19 150 86h-149v155h331c4 -70 4 -137 -20 -205c-50 -146 -183 -202 -312 -202c-178 0 -358 119 -359 358zM474 330v-11 h174c-2 -144 -104 -239 -243 -239c-152 0 -261 114 -261 270c0 154 109 272 261 271c82 0 162 -36 205 -107h12c-45 78 -134 116 -217 116c-136 0 -272 -98 -272 -280s136 -281 272 -280c142 0 254 102 254 249v11h-185z" glyph-name="g" unicode="g" horiz-adv-x="790"/>
<glyph d="M672 700v-700h-183v281h-216v-281h-183v700h183v-254h216v254h183zM175 68h11v289h390v-289h10v565h-10v-264h-390v264h-11v-565z" glyph-name="h" unicode="h" horiz-adv-x="762"/>
<glyph d="M204 83h-106v-10h220v10h-104v533h96v10h-203v-10h97v-533zM297 157h89v-157h-355v157h89v387h-82v156h341v-156h-82v-387z" glyph-name="i" unicode="i" horiz-adv-x="414"/>
<glyph d="M578 700v-467c0 -153 -126 -241 -270 -241s-262 88 -262 241v91h169v-88c0 -55 41 -84 93 -84s87 28 87 84v305h-102v159h285zM134 256h-11v-20c0 -105 81 -169 182 -169c103 0 188 60 188 169v391h-133v-10h122v-381c0 -105 -78 -159 -176 -159c-96 0 -172 58 -172 159 v20z" glyph-name="j" unicode="j" horiz-adv-x="662"/>
<glyph d="M187 346h100c30 0 67 5 96 13l177 -290h12l-180 294c123 42 161 151 160 269h-10c0 -115 -35 -201 -118 -245c-36 -19 -86 -33 -138 -33h-99v278h-13v-563h13v277zM272 0h-182v700h182v-265h13c179 0 170 134 170 265h184c0 -143 4 -275 -135 -364l190 -308v-28h-199 l-154 271c-24 -4 -46 -4 -69 -4v-267z" glyph-name="k" unicode="k" horiz-adv-x="708"/>
<glyph d="M268 700v-539h254v-161h-434v700h180zM454 76v9h-270v547h-11v-556h281z" glyph-name="l" unicode="l" horiz-adv-x="556"/>
<glyph d="M428 398l279 304h64v-702h-183v312l-149 -156h-20l-148 156v-312h-183v702h66zM675 69h10v464h-14l-243 -256l-240 256h-13v-464h10v451l243 -258l247 258v-451z" glyph-name="m" unicode="m" horiz-adv-x="860"/>
<glyph d="M627 -1l-353 345v-344h-185v703h65l354 -346v343h183v-701h-64zM174 559v-490h12v473c70 -67 140 -136 208 -203c67 -66 134 -131 203 -198h8v491h-11v-474c-70 69 -139 138 -210 204c-65 66 -132 132 -199 197h-11z" glyph-name="n" unicode="n" horiz-adv-x="780"/>
<glyph d="M134 349c0 -376 543 -376 543 0s-543 375 -543 0zM764 349c0 -485 -718 -485 -718 0c0 484 718 484 718 0zM230 349c0 252 351 252 351 0c0 -254 -351 -254 -351 0zM667 349c0 358 -523 365 -523 0c0 -366 523 -359 523 0z" glyph-name="o" unicode="o" horiz-adv-x="810"/>
<glyph d="M398 254c222 2 223 370 0 370h-226v-557h11v187h215zM268 0h-179v700h308c335 -1 335 -521 0 -521h-129v-179zM183 615h215c207 0 210 -349 0 -349h-215v349zM396 340c98 0 104 199 0 200c-42 1 -87 0 -128 0v-200h128z" glyph-name="p" unicode="p" horiz-adv-x="694"/>
<glyph d="M781 0h-182l-17 32c-212 -113 -535 -6 -535 317c0 484 718 484 718 0c0 -83 -21 -152 -56 -207l72 -119v-23zM655 66h14l-61 86c43 47 70 112 70 197c0 376 -543 375 -543 0c0 -287 316 -355 466 -205zM231 349c0 252 350 252 350 0c0 -254 -350 -254 -350 0zM669 349 c0 358 -524 365 -524 0c0 -366 524 -359 524 0z" glyph-name="q" unicode="q" horiz-adv-x="814"/>
<glyph d="M396 615c208 0 211 -323 0 -323h-215v323h215zM181 281h215c7 0 14 1 20 1l130 -216h12l-101 165l-30 53c189 31 183 340 -31 340h-225v-557h10v214zM543 248l137 -222v-26h-200l-120 206h-93v-206h-179v700h307c275 -1 325 -332 148 -452zM395 367c97 0 102 172 0 173 c-42 1 -86 0 -128 0v-173h128z" glyph-name="r" unicode="r" horiz-adv-x="699"/>
<glyph d="M213 214c0 -89 219 -87 219 -5c0 49 -58 57 -128 61c-152 11 -252 63 -254 215c-6 302 538 302 534 0h-170c0 93 -188 85 -194 2c-4 -53 48 -64 111 -71c139 -15 275 -33 275 -208c0 -294 -570 -302 -566 6h173zM476 549h13c-75 141 -364 105 -360 -64 c3 -120 87 -138 189 -146c97 -7 194 -9 194 -130c0 -155 -282 -186 -361 -59h-12c72 -143 384 -111 384 59c0 124 -101 133 -203 141c-98 7 -179 23 -179 135c-1 157 260 189 335 64z" glyph-name="s" unicode="s" horiz-adv-x="648"/>
<glyph d="M192 540h-172v160h520v-160h-171v-540h-177v540zM276 67h10c0 184 -1 366 -2 549h188v9h-385v-9h189v-549z" glyph-name="t" unicode="t" horiz-adv-x="562"/>
<glyph d="M360 151c52 0 106 28 106 85v464h170v-467c0 -154 -132 -243 -276 -243c-143 0 -276 89 -276 243v467h169v-464c0 -57 55 -85 107 -85zM360 65c100 0 198 62 198 171v397h-11v-397c0 -104 -92 -160 -187 -160s-187 56 -187 160v397h-11v-397c0 -109 98 -171 198 -171z " glyph-name="u" unicode="u" horiz-adv-x="722"/>
<glyph d="M576 633l-223 -518h-1l-226 518h-13l237 -540h5l233 540h-12zM186 700l164 -403h5l160 403h172v-27l-297 -681h-76l-300 681v27h172z" glyph-name="v" unicode="v" horiz-adv-x="702"/>
<glyph d="M431 689h86l119 -372h3l31 119l89 264h174v-27l-243 -680h-103l-112 337h-3l-112 -337h-99l-246 680v27h174l90 -264l31 -119h3zM313 115h-1l-186 518h-12l195 -540h7l158 469l158 -469h7l196 540h-14l-185 -518h-1l-157 462h-9z" glyph-name="w" unicode="w" horiz-adv-x="949"/>
<glyph d="M336 383l-165 250h-11l171 -262l-197 -304h14l188 292l189 -292h12l-196 304l170 262h-11zM339 220h-6l-128 -220h-193v27l226 344l-202 302v27h186l111 -182h5l112 182h185v-27l-202 -302l227 -344v-27h-193z" glyph-name="x" unicode="x" horiz-adv-x="673"/>
<glyph d="M131 633l196 -316v-250h11v250l196 316h-13l-188 -304l-189 304h-13zM421 294v-294h-177v294l-235 379v27h193l127 -233h7l127 233h194v-27z" glyph-name="y" unicode="y" horiz-adv-x="665"/>
<glyph d="M579 700v-27l-284 -513h287v-160h-559v27l283 513h-257v160h530zM109 615h330l-287 -540h355v9h-340l287 541h-345v-10z" glyph-name="z" unicode="z" horiz-adv-x="611"/>
<glyph d="M579 700v-27l-284 -513h287v-160h-559v27l283 513h-257v160h530zM109 615h330l-287 -540h355v9h-340l287 541h-345v-10zM193 907h66l65 -76l61 76h69l-86 -106h10l87 106h56v-16l-106 -143h-182l-107 143v16h56l86 -106h11z" glyph-name="zcaron" unicode="ž" horiz-adv-x="611"/>
<glyph d="M579 700v-27l-284 -513h287v-160h-559v27l283 513h-257v160h530zM109 615h330l-287 -540h355v9h-340l287 541h-345v-10zM192 917h66l65 -76l61 76h69l-86 -106h10l87 106h56v-16l-106 -143h-182l-107 143v16h56l86 -106h11z" glyph-name="Zcaron" unicode="Ž" horiz-adv-x="611"/>
<glyph d="M268 700v-236l43 27l78 -123l-121 -76v-131h254v-161h-434v170l-34 -22l-78 123l112 71v358h180zM72 245l101 64v-233h281v9h-270v230l114 72l-5 7l-109 -68v306h-11v-313l-106 -67z" glyph-name="lslash" unicode="ł" horiz-adv-x="556"/>
<glyph d="M268 700v-236l43 27l78 -123l-121 -76v-131h254v-161h-434v170l-34 -22l-78 123l112 71v358h180zM72 245l101 64v-233h281v9h-270v230l114 72l-5 7l-109 -68v306h-11v-313l-106 -67z" glyph-name="Lslash" unicode="Ł" horiz-adv-x="556"/>
<glyph d="M213 214h-173c-4 -308 566 -300 566 -6c0 175 -136 193 -275 208c-63 7 -115 18 -111 71c6 83 194 91 194 -2h170c4 302 -540 302 -534 0c2 -152 102 -204 254 -215c70 -4 128 -12 128 -61c0 -82 -219 -84 -219 5zM489 549h-13c-75 125 -336 93 -335 -64 c0 -112 81 -128 179 -135c102 -8 203 -17 203 -141c0 -170 -312 -202 -384 -59h12c79 -127 361 -96 361 59c0 121 -97 123 -194 130c-102 8 -186 26 -189 146c-4 169 285 205 360 64zM195 928h66l65 -76l61 76h69l-86 -106h10l87 106h56v-16l-106 -143h-182l-107 143v16h56 l86 -106h11z" glyph-name="Scaron" unicode="Š" horiz-adv-x="648"/>
<glyph d="M213 214h-173c-4 -308 566 -300 566 -6c0 175 -136 193 -275 208c-63 7 -115 18 -111 71c6 83 194 91 194 -2h170c4 302 -540 302 -534 0c2 -152 102 -204 254 -215c70 -4 128 -12 128 -61c0 -82 -219 -84 -219 5zM489 549h-13c-75 125 -336 93 -335 -64 c0 -112 81 -128 179 -135c102 -8 203 -17 203 -141c0 -170 -312 -202 -384 -59h12c79 -127 361 -96 361 59c0 121 -97 123 -194 130c-102 8 -186 26 -189 146c-4 169 285 205 360 64zM186 921h66l65 -76l61 76h69l-86 -106h10l87 106h56v-16l-106 -143h-182l-107 143v16h56 l86 -106h11z" glyph-name="scaron" unicode="š" horiz-adv-x="648"/>
<glyph d="M131 633l196 -316v-250h11v250l196 316h-13l-188 -304l-189 304h-13zM421 294v-294h-177v294l-235 379v27h193l127 -233h7l127 233h194v-27zM200 747c-55 0 -99 36 -99 91c0 57 44 92 99 92s100 -35 100 -92c0 -55 -45 -91 -100 -91zM465 747c-55 0 -99 36 -99 91 c0 57 44 92 99 92c56 0 99 -35 99 -92c0 -55 -43 -91 -99 -91zM465 799c25 0 46 14 46 39c0 27 -21 41 -46 41s-45 -14 -45 -41c0 -25 20 -39 45 -39zM465 790c30 0 54 17 54 48s-24 50 -54 50c-31 0 -55 -19 -55 -50s26 -48 55 -48zM200 799c26 0 46 14 46 39 c0 27 -20 41 -46 41c-24 0 -45 -14 -45 -41c0 -25 21 -39 45 -39zM200 790c31 0 55 17 55 48s-24 50 -55 50c-30 0 -54 -19 -54 -50s24 -48 54 -48z" glyph-name="Ydieresis" unicode="Ÿ" horiz-adv-x="665"/>
<glyph d="M355 311c17 -158 -137 -184 -145 -297c-2 -37 35 -56 68 -56c35 1 68 21 68 69h151c3 -152 -100 -224 -224 -227c-146 -4 -235 93 -235 210c0 148 147 181 140 301h177zM267 520c54 0 98 -36 98 -91c0 -56 -44 -92 -98 -92c-55 0 -99 36 -99 92c0 55 44 91 99 91z M267 469c-26 0 -46 -15 -46 -40s20 -41 46 -41c24 0 44 16 44 41s-20 40 -44 40zM267 478c-31 0 -55 -18 -55 -49s24 -49 55 -49c30 0 54 18 54 49s-24 49 -54 49zM267 250h-11c-30 -85 -135 -143 -140 -239c-3 -76 52 -136 158 -137c66 -1 119 27 141 90h-11 c-21 -58 -72 -82 -128 -81c-102 2 -153 58 -150 128c5 96 111 148 141 239z" glyph-name="questiondown" unicode="¿" horiz-adv-x="543"/>
<glyph d="M175 513c55 0 98 -36 98 -91c0 -56 -43 -92 -98 -92s-98 36 -98 92c0 55 43 91 98 91zM262 304l15 -501h-200l11 501h174zM180 235h-9v-363h9v363zM175 462c-25 0 -45 -15 -45 -40s20 -41 45 -41c24 0 45 16 45 41s-21 40 -45 40zM175 471c-30 0 -54 -18 -54 -49 s24 -49 54 -49s54 18 54 49s-24 49 -54 49z" glyph-name="exclamdown" unicode="¡" horiz-adv-x="353"/>
<glyph d="M133 -6c-56 0 -100 36 -100 91c0 56 44 93 100 93c54 0 98 -37 98 -93c0 -55 -44 -91 -98 -91zM133 45c24 0 44 14 44 40s-20 41 -44 41c-26 0 -46 -15 -46 -41s20 -40 46 -40zM133 36c28 0 53 18 53 49s-25 48 -53 48c-30 0 -54 -17 -54 -48s24 -49 54 -49zM390 -6 c-56 0 -100 36 -100 91c0 56 44 93 100 93c54 0 98 -37 98 -93c0 -55 -44 -91 -98 -91zM390 45c24 0 44 14 44 40s-20 41 -44 41c-26 0 -46 -15 -46 -41s20 -40 46 -40zM390 36c28 0 53 18 53 49s-25 48 -53 48c-30 0 -54 -17 -54 -48s24 -49 54 -49zM648 -6 c-56 0 -100 36 -100 91c0 56 44 93 100 93c54 0 98 -37 98 -93c0 -55 -44 -91 -98 -91zM648 45c24 0 44 14 44 40s-20 41 -44 41c-26 0 -46 -15 -46 -41s20 -40 46 -40zM648 36c28 0 53 18 53 49s-25 48 -53 48c-30 0 -54 -17 -54 -48s24 -49 54 -49z" glyph-name="ellipsis" unicode="…" horiz-adv-x="799"/>
<glyph d="M354 585l-188 -407h379l-190 407h-1zM534 0l-41 88h-276l-41 -88h-175v26l315 683h77l316 -683v-26h-175zM608 68l-251 539h-6l-249 -539h13l47 99h387l46 -99h13zM354 410l74 -161h-146zM372 753l-53 101l-11 -2l53 -99h-59l-103 117v15l152 51l76 -167v-16h-55z" glyph-name="Agrave" unicode="À"/>
<glyph d="M166 178l188 407h1l190 -407h-379zM534 0l-41 88h-276l-41 -88h-175v26l315 683h77l316 -683v-26h-175zM608 68l-251 539h-6l-249 -539h13l47 99h387l46 -99h13zM428 249l-74 161l-72 -161h146zM387 852l-53 -101h-55v16l76 167l152 -51v-15l-103 -117h-59l53 99z" glyph-name="Aacute" unicode="Á"/>
<glyph d="M354 585l-188 -407h379l-190 407h-1zM534 0l-41 88h-276l-41 -88h-175v26l315 683h77l316 -683v-26h-175zM608 68l-251 539h-6l-249 -539h13l47 99h387l46 -99h13zM354 410l74 -161h-146zM484 746h-66l-65 76l-61 -76h-69l86 106h-10l-87 -106h-56v16l106 143h182 l107 -143v-16h-56l-86 106h-11z" glyph-name="Acircumflex" unicode="Â"/>
<glyph d="M354 585l-188 -407h379l-190 407h-1zM534 0l-41 88h-276l-41 -88h-175v26l315 683h77l316 -683v-26h-175zM608 68l-251 539h-6l-249 -539h13l47 99h387l46 -99h13zM354 410l74 -161h-146zM229 759c-29 11 -57 23 -86 36c35 106 108 149 209 108c31 -12 82 -38 97 12 c30 -13 60 -25 90 -39c-21 -97 -103 -150 -194 -114c-30 12 -95 50 -116 -3zM206 823l7 -3c31 34 76 33 126 11c56 -23 105 -25 137 17l-8 4c-30 -36 -76 -33 -126 -11c-53 23 -103 23 -136 -18z" glyph-name="Atilde" unicode="Ã"/>
<glyph d="M354 585l-188 -407h379l-190 407h-1zM534 0l-41 88h-276l-41 -88h-175v26l315 683h77l316 -683v-26h-175zM608 68l-251 539h-6l-249 -539h13l47 99h387l46 -99h13zM354 410l74 -161h-146zM223 739c-55 0 -99 36 -99 91c0 57 44 92 99 92s100 -35 100 -92 c0 -55 -45 -91 -100 -91zM488 739c-55 0 -99 36 -99 91c0 57 44 92 99 92c56 0 99 -35 99 -92c0 -55 -43 -91 -99 -91zM488 791c25 0 46 14 46 39c0 27 -21 41 -46 41s-45 -14 -45 -41c0 -25 20 -39 45 -39zM488 782c30 0 54 17 54 48s-24 50 -54 50c-31 0 -55 -19 -55 -50 s26 -48 55 -48zM223 791c26 0 46 14 46 39c0 27 -20 41 -46 41c-24 0 -45 -14 -45 -41c0 -25 21 -39 45 -39zM223 782c31 0 55 17 55 48s-24 50 -55 50c-30 0 -54 -19 -54 -50s24 -48 54 -48z" glyph-name="Adieresis" unicode="Ä"/>
<glyph d="M354 585l-188 -407h379l-190 407h-1zM608 68l-251 539h-6l-249 -539h13l47 99h387l46 -99h13zM354 410l74 -161h-146zM355 735c32 0 60 19 60 54c0 34 -28 54 -60 54c-34 0 -61 -20 -61 -54c0 -35 27 -54 61 -54zM355 723c39 0 72 24 72 66c0 41 -33 65 -72 65 c-41 0 -73 -24 -73 -65c0 -42 32 -66 73 -66zM534 0l-41 88h-276l-41 -88h-175v26l299 649c-47 18 -79 58 -79 114c0 74 60 121 134 121c73 0 132 -47 132 -121c0 -56 -33 -96 -79 -114l301 -649v-26h-175z" glyph-name="Aring" unicode="Å"/>
<glyph d="M354 585l-188 -407h379l-190 407h-1zM608 68l-251 539h-6l-249 -539h13l47 99h387l46 -99h13zM354 410l74 -161h-146zM355 735c32 0 60 19 60 54c0 34 -28 54 -60 54c-34 0 -61 -20 -61 -54c0 -35 27 -54 61 -54zM355 723c39 0 72 24 72 66c0 41 -33 65 -72 65 c-41 0 -73 -24 -73 -65c0 -42 32 -66 73 -66zM534 0l-41 88h-276l-41 -88h-175v26l299 649c-47 18 -79 58 -79 114c0 74 60 121 134 121c73 0 132 -47 132 -121c0 -56 -33 -96 -79 -114l301 -649v-26h-175z" glyph-name="aring" unicode="å"/>
<glyph d="M354 585l-188 -407h379l-190 407h-1zM534 0l-41 88h-276l-41 -88h-175v26l315 683h77l316 -683v-26h-175zM608 68l-251 539h-6l-249 -539h13l47 99h387l46 -99h13zM354 410l74 -161h-146zM369 751l-53 101l-11 -2l53 -99h-59l-103 117v15l152 51l76 -167v-16h-55z" glyph-name="agrave" unicode="à"/>
<glyph d="M166 178l188 407h1l190 -407h-379zM534 0l-41 88h-276l-41 -88h-175v26l315 683h77l316 -683v-26h-175zM608 68l-251 539h-6l-249 -539h13l47 99h387l46 -99h13zM428 249l-74 161l-72 -161h146zM398 854l-53 -101h-55v16l76 167l152 -51v-15l-103 -117h-59l53 99z" glyph-name="aacute" unicode="á"/>
<glyph d="M354 585l-188 -407h379l-190 407h-1zM534 0l-41 88h-276l-41 -88h-175v26l315 683h77l316 -683v-26h-175zM608 68l-251 539h-6l-249 -539h13l47 99h387l46 -99h13zM354 410l74 -161h-146zM486 743h-66l-65 76l-61 -76h-69l86 106h-10l-87 -106h-56v16l106 143h182 l107 -143v-16h-56l-86 106h-11z" glyph-name="acircumflex" unicode="â"/>
<glyph d="M354 585l-188 -407h379l-190 407h-1zM534 0l-41 88h-276l-41 -88h-175v26l315 683h77l316 -683v-26h-175zM608 68l-251 539h-6l-249 -539h13l47 99h387l46 -99h13zM354 410l74 -161h-146zM244 749c-29 11 -57 23 -86 36c35 106 108 149 209 108c31 -12 82 -38 97 12 c30 -13 60 -25 90 -39c-21 -97 -103 -150 -194 -114c-30 12 -95 50 -116 -3zM221 813l7 -3c31 34 76 33 126 11c56 -23 105 -25 137 17l-8 4c-30 -36 -76 -33 -126 -11c-53 23 -103 23 -136 -18z" glyph-name="atilde" unicode="ã"/>
<glyph d="M354 585l-188 -407h379l-190 407h-1zM534 0l-41 88h-276l-41 -88h-175v26l315 683h77l316 -683v-26h-175zM608 68l-251 539h-6l-249 -539h13l47 99h387l46 -99h13zM354 410l74 -161h-146zM223 732c-55 0 -99 36 -99 91c0 57 44 92 99 92s100 -35 100 -92 c0 -55 -45 -91 -100 -91zM488 732c-55 0 -99 36 -99 91c0 57 44 92 99 92c56 0 99 -35 99 -92c0 -55 -43 -91 -99 -91zM488 784c25 0 46 14 46 39c0 27 -21 41 -46 41s-45 -14 -45 -41c0 -25 20 -39 45 -39zM488 775c30 0 54 17 54 48s-24 50 -54 50c-31 0 -55 -19 -55 -50 s26 -48 55 -48zM223 784c26 0 46 14 46 39c0 27 -20 41 -46 41c-24 0 -45 -14 -45 -41c0 -25 21 -39 45 -39zM223 775c31 0 55 17 55 48s-24 50 -55 50c-30 0 -54 -19 -54 -50s24 -48 54 -48z" glyph-name="adieresis" unicode="ä"/>
<glyph d="M329 -78l19 75c-157 21 -300 139 -301 353c1 238 181 358 359 358c145 0 302 -79 329 -266h-176c-25 71 -78 103 -153 103c-105 0 -174 -79 -174 -195c0 -103 68 -193 174 -194c76 0 137 38 156 113h176c-23 -176 -145 -257 -276 -273l-10 -45c64 -10 82 -68 61 -120 c-36 -89 -157 -88 -227 -44l8 93c22 -18 75 -20 83 7c8 28 -26 35 -48 35zM413 70l-24 -135c39 -10 69 -35 55 -78c-15 -44 -63 -50 -103 -40l-2 -9c46 -12 99 -5 115 46c14 44 -14 76 -54 88l22 128c92 3 169 51 210 136h-12c-44 -85 -121 -126 -214 -126 c-129 0 -261 96 -261 270c0 175 132 272 261 272c90 0 166 -38 210 -116h12c-46 83 -128 125 -222 125c-135 0 -271 -99 -271 -281c0 -181 136 -281 271 -280h7z" glyph-name="Ccedilla" unicode="Ç" horiz-adv-x="786"/>
<glyph d="M329 -78l19 75c-157 21 -300 139 -301 353c1 238 181 358 359 358c145 0 302 -79 329 -266h-176c-25 71 -78 103 -153 103c-105 0 -174 -79 -174 -195c0 -103 68 -193 174 -194c76 0 137 38 156 113h176c-23 -176 -145 -257 -276 -273l-10 -45c64 -10 82 -68 61 -120 c-36 -89 -157 -88 -227 -44l8 93c22 -18 75 -20 83 7c8 28 -26 35 -48 35zM413 70l-24 -135c39 -10 69 -35 55 -78c-15 -44 -63 -50 -103 -40l-2 -9c46 -12 99 -5 115 46c14 44 -14 76 -54 88l22 128c92 3 169 51 210 136h-12c-44 -85 -121 -126 -214 -126 c-129 0 -261 96 -261 270c0 175 132 272 261 272c90 0 166 -38 210 -116h12c-46 83 -128 125 -222 125c-135 0 -271 -99 -271 -281c0 -181 136 -281 271 -280h7z" glyph-name="ccedilla" unicode="ç" horiz-adv-x="786"/>
<glyph d="M173 626v-552h294v10h-283v273h254v10h-254v249h274v10h-285zM526 700v-160h-259v-99h238v-159h-238v-123h268v-159h-446v700h437zM339 753l-53 101l-11 -2l53 -99h-59l-103 117v15l152 51l76 -167v-16h-55z" glyph-name="Egrave" unicode="È" horiz-adv-x="600"/>
<glyph d="M173 626v-552h294v10h-283v273h254v10h-254v249h274v10h-285zM526 700v-160h-259v-99h238v-159h-238v-123h268v-159h-446v700h437zM344 852l-53 -101h-55v16l76 167l152 -51v-15l-103 -117h-59l53 99z" glyph-name="Eacute" unicode="É" horiz-adv-x="600"/>
<glyph d="M173 626v-552h294v10h-283v273h254v10h-254v249h274v10h-285zM526 700v-160h-259v-99h238v-159h-238v-123h268v-159h-446v700h437zM437 750h-66l-65 76l-61 -76h-69l86 106h-10l-87 -106h-56v16l106 143h182l107 -143v-16h-56l-86 106h-11z" glyph-name="Ecircumflex" unicode="Ê" horiz-adv-x="600"/>
<glyph d="M173 626v-552h294v10h-283v273h254v10h-254v249h274v10h-285zM526 700v-160h-259v-99h238v-159h-238v-123h268v-159h-446v700h437zM186 745c-54 0 -97 35 -97 88c0 55 43 90 97 90c53 0 97 -35 97 -90c0 -53 -44 -88 -97 -88zM444 745c-54 0 -97 35 -97 88 c0 55 43 90 97 90s96 -35 96 -90c0 -53 -42 -88 -96 -88zM444 795c24 0 45 14 45 38c0 26 -21 40 -45 40s-44 -14 -44 -40c0 -24 20 -38 44 -38zM444 786c29 0 52 17 52 47s-23 49 -52 49c-30 0 -54 -19 -54 -49s26 -47 54 -47zM186 795c25 0 45 14 45 38 c0 26 -20 40 -45 40c-24 0 -44 -14 -44 -40c0 -24 20 -38 44 -38zM186 786c30 0 53 17 53 47s-23 49 -53 49c-29 0 -53 -19 -53 -49s24 -47 53 -47z" glyph-name="Edieresis" unicode="Ë" horiz-adv-x="600"/>
<glyph d="M173 626v-552h294v10h-283v273h254v10h-254v249h274v10h-285zM526 700v-160h-259v-99h238v-159h-238v-123h268v-159h-446v700h437zM340 748l-53 101l-11 -2l53 -99h-59l-103 117v15l152 51l76 -167v-16h-55z" glyph-name="egrave" unicode="è" horiz-adv-x="600"/>
<glyph d="M173 626v-552h294v10h-283v273h254v10h-254v249h274v10h-285zM526 700v-160h-259v-99h238v-159h-238v-123h268v-159h-446v700h437zM335 847l-53 -101h-55v16l76 167l152 -51v-15l-103 -117h-59l53 99z" glyph-name="eacute" unicode="é" horiz-adv-x="600"/>
<glyph d="M173 626v-552h294v10h-283v273h254v10h-254v249h274v10h-285zM526 700v-160h-259v-99h238v-159h-238v-123h268v-159h-446v700h437zM437 748h-66l-65 76l-61 -76h-69l86 106h-10l-87 -106h-56v16l106 143h182l107 -143v-16h-56l-86 106h-11z" glyph-name="ecircumflex" unicode="ê" horiz-adv-x="600"/>
<glyph d="M173 626v-552h294v10h-283v273h254v10h-254v249h274v10h-285zM526 700v-160h-259v-99h238v-159h-238v-123h268v-159h-446v700h437zM186 743c-52 0 -93 34 -93 85c0 54 41 87 93 87s94 -33 94 -87c0 -51 -42 -85 -94 -85zM435 743c-52 0 -93 34 -93 85c0 54 41 87 93 87 c53 0 93 -33 93 -87c0 -51 -40 -85 -93 -85zM435 792c24 0 43 13 43 36c0 26 -19 39 -43 39c-23 0 -42 -13 -42 -39c0 -23 19 -36 42 -36zM435 783c28 0 51 16 51 45c0 30 -23 47 -51 47c-29 0 -52 -17 -52 -47c0 -29 25 -45 52 -45zM186 792c25 0 43 13 43 36 c0 26 -18 39 -43 39c-22 0 -42 -13 -42 -39c0 -23 20 -36 42 -36zM186 783c29 0 52 16 52 45c0 30 -23 47 -52 47c-28 0 -51 -17 -51 -47c0 -29 23 -45 51 -45z" glyph-name="edieresis" unicode="ë" horiz-adv-x="600"/>
<glyph d="M204 83h-106v-10h220v10h-104v533h96v10h-203v-10h97v-533zM297 157h89v-157h-355v157h89v387h-82v156h341v-156h-82v-387zM224 751l-53 101l-11 -2l53 -99h-59l-103 117v15l152 51l76 -167v-16h-55z" glyph-name="Igrave" unicode="Ì" horiz-adv-x="414"/>
<glyph d="M204 83h-106v-10h220v10h-104v533h96v10h-203v-10h97v-533zM297 157h89v-157h-355v157h89v387h-82v156h341v-156h-82v-387zM244 850l-53 -101h-55v16l76 167l152 -51v-15l-103 -117h-59l53 99z" glyph-name="Iacute" unicode="Í" horiz-adv-x="414"/>
<glyph d="M204 83h-106v-10h220v10h-104v533h96v10h-203v-10h97v-533zM297 157h89v-157h-355v157h89v387h-82v156h341v-156h-82v-387zM338 751h-66l-65 76l-61 -76h-69l86 106h-10l-87 -106h-56v16l106 143h182l107 -143v-16h-56l-86 106h-11z" glyph-name="Icircumflex" unicode="Î" horiz-adv-x="414"/>
<glyph d="M204 83h-106v-10h220v10h-104v533h96v10h-203v-10h97v-533zM297 157h89v-157h-355v157h89v387h-82v156h341v-156h-82v-387zM77 750c-55 0 -99 36 -99 91c0 57 44 92 99 92s100 -35 100 -92c0 -55 -45 -91 -100 -91zM342 750c-55 0 -99 36 -99 91c0 57 44 92 99 92 c56 0 99 -35 99 -92c0 -55 -43 -91 -99 -91zM342 802c25 0 46 14 46 39c0 27 -21 41 -46 41s-45 -14 -45 -41c0 -25 20 -39 45 -39zM342 793c30 0 54 17 54 48s-24 50 -54 50c-31 0 -55 -19 -55 -50s26 -48 55 -48zM77 802c26 0 46 14 46 39c0 27 -20 41 -46 41 c-24 0 -45 -14 -45 -41c0 -25 21 -39 45 -39zM77 793c31 0 55 17 55 48s-24 50 -55 50c-30 0 -54 -19 -54 -50s24 -48 54 -48z" glyph-name="Idieresis" unicode="Ï" horiz-adv-x="414"/>
<glyph d="M204 83h-106v-10h220v10h-104v533h96v10h-203v-10h97v-533zM297 157h89v-157h-355v157h89v387h-82v156h341v-156h-82v-387zM221 746l-53 101l-11 -2l53 -99h-59l-103 117v15l152 51l76 -167v-16h-55z" glyph-name="igrave" unicode="ì" horiz-adv-x="414"/>
<glyph d="M204 83h-106v-10h220v10h-104v533h96v10h-203v-10h97v-533zM297 157h89v-157h-355v157h89v387h-82v156h341v-156h-82v-387zM240 849l-53 -101h-55v16l76 167l152 -51v-15l-103 -117h-59l53 99z" glyph-name="iacute" unicode="í" horiz-adv-x="414"/>
<glyph d="M204 83h-106v-10h220v10h-104v533h96v10h-203v-10h97v-533zM297 157h89v-157h-355v157h89v387h-82v156h341v-156h-82v-387zM338 748h-66l-65 76l-61 -76h-69l86 106h-10l-87 -106h-56v16l106 143h182l107 -143v-16h-56l-86 106h-11z" glyph-name="icircumflex" unicode="î" horiz-adv-x="414"/>
<glyph d="M204 83h-106v-10h220v10h-104v533h96v10h-203v-10h97v-533zM297 157h89v-157h-355v157h89v387h-82v156h341v-156h-82v-387zM75 742c-55 0 -99 36 -99 91c0 57 44 92 99 92s100 -35 100 -92c0 -55 -45 -91 -100 -91zM340 742c-55 0 -99 36 -99 91c0 57 44 92 99 92 c56 0 99 -35 99 -92c0 -55 -43 -91 -99 -91zM340 794c25 0 46 14 46 39c0 27 -21 41 -46 41s-45 -14 -45 -41c0 -25 20 -39 45 -39zM340 785c30 0 54 17 54 48s-24 50 -54 50c-31 0 -55 -19 -55 -50s26 -48 55 -48zM75 794c26 0 46 14 46 39c0 27 -20 41 -46 41 c-24 0 -45 -14 -45 -41c0 -25 21 -39 45 -39zM75 785c31 0 55 17 55 48s-24 50 -55 50c-30 0 -54 -19 -54 -50s24 -48 54 -48z" glyph-name="idieresis" unicode="ï" horiz-adv-x="414"/>
<glyph d="M5 427h84v273h264c456 -2 456 -698 0 -700h-264v270h-84v157zM268 537v-110h92v-157h-92v-107h85c223 0 223 374 0 374h-85zM176 625v-272h-104v-9h104v-269h175c348 0 348 550 0 550h-175zM292 353h-107v262h166c336 -2 336 -528 0 -529h-166v258h107v9z" glyph-name="Eth" unicode="Ð" horiz-adv-x="742"/>
<glyph d="M5 427h84v273h264c456 -2 456 -698 0 -700h-264v270h-84v157zM268 537v-110h92v-157h-92v-107h85c223 0 223 374 0 374h-85zM176 625v-272h-104v-9h104v-269h175c348 0 348 550 0 550h-175zM292 353h-107v262h166c336 -2 336 -528 0 -529h-166v258h107v9z" glyph-name="eth" unicode="ð" horiz-adv-x="742"/>
<glyph d="M627 -1l-353 345v-344h-185v703h65l354 -346v343h183v-701h-64zM174 559v-490h12v473c70 -67 140 -136 208 -203c67 -66 134 -131 203 -198h8v491h-11v-474c-70 69 -139 138 -210 204c-65 66 -132 132 -199 197h-11zM263 759c-29 11 -57 23 -86 36 c35 106 108 149 209 108c31 -12 82 -38 97 12c30 -13 60 -25 90 -39c-21 -97 -103 -150 -194 -114c-30 12 -95 50 -116 -3zM240 823l7 -3c31 34 76 33 126 11c56 -23 105 -25 137 17l-8 4c-30 -36 -76 -33 -126 -11c-53 23 -103 23 -136 -18z" glyph-name="Ntilde" unicode="Ñ" horiz-adv-x="780"/>
<glyph d="M627 -1l-353 345v-344h-185v703h65l354 -346v343h183v-701h-64zM174 559v-490h12v473c70 -67 140 -136 208 -203c67 -66 134 -131 203 -198h8v491h-11v-474c-70 69 -139 138 -210 204c-65 66 -132 132 -199 197h-11zM278 757c-29 11 -57 23 -86 36 c35 106 108 149 209 108c31 -12 82 -38 97 12c30 -13 60 -25 90 -39c-21 -97 -103 -150 -194 -114c-30 12 -95 50 -116 -3zM255 821l7 -3c31 34 76 33 126 11c56 -23 105 -25 137 17l-8 4c-30 -36 -76 -33 -126 -11c-53 23 -103 23 -136 -18z" glyph-name="ntilde" unicode="ñ" horiz-adv-x="780"/>
<glyph d="M134 349c0 -376 543 -376 543 0s-543 375 -543 0zM764 349c0 -485 -718 -485 -718 0c0 484 718 484 718 0zM230 349c0 252 351 252 351 0c0 -254 -351 -254 -351 0zM667 349c0 358 -523 365 -523 0c0 -366 523 -359 523 0zM421 760l-53 101l-11 -2l53 -99h-59l-103 117 v15l152 51l76 -167v-16h-55z" glyph-name="Ograve" unicode="Ò" horiz-adv-x="810"/>
<glyph d="M134 349c0 -376 543 -376 543 0s-543 375 -543 0zM764 349c0 -485 -718 -485 -718 0c0 484 718 484 718 0zM230 349c0 -254 351 -254 351 0c0 252 -351 252 -351 0zM667 349c0 -359 -523 -366 -523 0c0 365 523 358 523 0zM427 867l-53 -101h-55v16l76 167l152 -51v-15 l-103 -117h-59l53 99z" glyph-name="Oacute" unicode="Ó" horiz-adv-x="810"/>
<glyph d="M134 349c0 -376 543 -376 543 0s-543 375 -543 0zM764 349c0 -485 -718 -485 -718 0c0 484 718 484 718 0zM230 349c0 252 351 252 351 0c0 -254 -351 -254 -351 0zM667 349c0 358 -523 365 -523 0c0 -366 523 -359 523 0zM535 763h-66l-65 76l-61 -76h-69l86 106h-10 l-87 -106h-56v16l106 143h182l107 -143v-16h-56l-86 106h-11z" glyph-name="Ocircumflex" unicode="Ô" horiz-adv-x="810"/>
<glyph d="M134 349c0 -376 543 -376 543 0s-543 375 -543 0zM764 349c0 -485 -718 -485 -718 0c0 484 718 484 718 0zM230 349c0 252 351 252 351 0c0 -254 -351 -254 -351 0zM667 349c0 358 -523 365 -523 0c0 -366 523 -359 523 0zM286 771c-29 11 -57 23 -86 36 c35 106 108 149 209 108c31 -12 82 -38 97 12c30 -13 60 -25 90 -39c-21 -97 -103 -150 -194 -114c-30 12 -95 50 -116 -3zM263 835l7 -3c31 34 76 33 126 11c56 -23 105 -25 137 17l-8 4c-30 -36 -76 -33 -126 -11c-53 23 -103 23 -136 -18z" glyph-name="Otilde" unicode="Õ" horiz-adv-x="810"/>
<glyph d="M134 349c0 -376 543 -376 543 0s-543 375 -543 0zM764 349c0 -485 -718 -485 -718 0c0 484 718 484 718 0zM230 349c0 252 351 252 351 0c0 -254 -351 -254 -351 0zM667 349c0 358 -523 365 -523 0c0 -366 523 -359 523 0zM272 750c-55 0 -99 36 -99 91c0 57 44 92 99 92 s100 -35 100 -92c0 -55 -45 -91 -100 -91zM537 750c-55 0 -99 36 -99 91c0 57 44 92 99 92c56 0 99 -35 99 -92c0 -55 -43 -91 -99 -91zM537 802c25 0 46 14 46 39c0 27 -21 41 -46 41s-45 -14 -45 -41c0 -25 20 -39 45 -39zM537 793c30 0 54 17 54 48s-24 50 -54 50 c-31 0 -55 -19 -55 -50s26 -48 55 -48zM272 802c26 0 46 14 46 39c0 27 -20 41 -46 41c-24 0 -45 -14 -45 -41c0 -25 21 -39 45 -39zM272 793c31 0 55 17 55 48s-24 50 -55 50c-30 0 -54 -19 -54 -50s24 -48 54 -48z" glyph-name="Odieresis" unicode="Ö" horiz-adv-x="810"/>
<glyph d="M134 349c0 -376 543 -376 543 0s-543 375 -543 0zM764 349c0 -485 -718 -485 -718 0c0 484 718 484 718 0zM230 349c0 252 351 252 351 0c0 -254 -351 -254 -351 0zM667 349c0 358 -523 365 -523 0c0 -366 523 -359 523 0zM416 759l-53 101l-11 -2l53 -99h-59l-103 117 v15l152 51l76 -167v-16h-55z" glyph-name="ograve" unicode="ò" horiz-adv-x="810"/>
<glyph d="M134 349c0 -376 543 -376 543 0s-543 375 -543 0zM764 349c0 -485 -718 -485 -718 0c0 484 718 484 718 0zM230 349c0 -254 351 -254 351 0c0 252 -351 252 -351 0zM667 349c0 -359 -523 -366 -523 0c0 365 523 358 523 0zM437 858l-53 -101h-55v16l76 167l152 -51v-15 l-103 -117h-59l53 99z" glyph-name="oacute" unicode="ó" horiz-adv-x="810"/>
<glyph d="M134 349c0 -376 543 -376 543 0s-543 375 -543 0zM764 349c0 -485 -718 -485 -718 0c0 484 718 484 718 0zM230 349c0 252 351 252 351 0c0 -254 -351 -254 -351 0zM667 349c0 358 -523 365 -523 0c0 -366 523 -359 523 0zM535 757h-66l-65 76l-61 -76h-69l86 106h-10 l-87 -106h-56v16l106 143h182l107 -143v-16h-56l-86 106h-11z" glyph-name="ocircumflex" unicode="ô" horiz-adv-x="810"/>
<glyph d="M134 349c0 -376 543 -376 543 0s-543 375 -543 0zM764 349c0 -485 -718 -485 -718 0c0 484 718 484 718 0zM230 349c0 252 351 252 351 0c0 -254 -351 -254 -351 0zM667 349c0 358 -523 365 -523 0c0 -366 523 -359 523 0zM293 761c-29 11 -57 23 -86 36 c35 106 108 149 209 108c31 -12 82 -38 97 12c30 -13 60 -25 90 -39c-21 -97 -103 -150 -194 -114c-30 12 -95 50 -116 -3zM270 825l7 -3c31 34 76 33 126 11c56 -23 105 -25 137 17l-8 4c-30 -36 -76 -33 -126 -11c-53 23 -103 23 -136 -18z" glyph-name="otilde" unicode="õ" horiz-adv-x="810"/>
<glyph d="M134 349c0 -376 543 -376 543 0s-543 375 -543 0zM764 349c0 -485 -718 -485 -718 0c0 484 718 484 718 0zM230 349c0 252 351 252 351 0c0 -254 -351 -254 -351 0zM667 349c0 358 -523 365 -523 0c0 -366 523 -359 523 0zM272 748c-55 0 -99 36 -99 91c0 57 44 92 99 92 s100 -35 100 -92c0 -55 -45 -91 -100 -91zM537 748c-55 0 -99 36 -99 91c0 57 44 92 99 92c56 0 99 -35 99 -92c0 -55 -43 -91 -99 -91zM537 800c25 0 46 14 46 39c0 27 -21 41 -46 41s-45 -14 -45 -41c0 -25 20 -39 45 -39zM537 791c30 0 54 17 54 48s-24 50 -54 50 c-31 0 -55 -19 -55 -50s26 -48 55 -48zM272 800c26 0 46 14 46 39c0 27 -20 41 -46 41c-24 0 -45 -14 -45 -41c0 -25 21 -39 45 -39zM272 791c31 0 55 17 55 48s-24 50 -55 50c-30 0 -54 -19 -54 -50s24 -48 54 -48z" glyph-name="odieresis" unicode="ö" horiz-adv-x="810"/>
<glyph d="M360 151c52 0 106 28 106 85v464h170v-467c0 -154 -132 -243 -276 -243c-143 0 -276 89 -276 243v467h169v-464c0 -57 55 -85 107 -85zM360 65c100 0 198 62 198 171v397h-11v-397c0 -104 -92 -160 -187 -160s-187 56 -187 160v397h-11v-397c0 -109 98 -171 198 -171z M233 746c-55 0 -99 36 -99 91c0 57 44 92 99 92s100 -35 100 -92c0 -55 -45 -91 -100 -91zM498 746c-55 0 -99 36 -99 91c0 57 44 92 99 92c56 0 99 -35 99 -92c0 -55 -43 -91 -99 -91zM498 798c25 0 46 14 46 39c0 27 -21 41 -46 41s-45 -14 -45 -41c0 -25 20 -39 45 -39z M498 789c30 0 54 17 54 48s-24 50 -54 50c-31 0 -55 -19 -55 -50s26 -48 55 -48zM233 798c26 0 46 14 46 39c0 27 -20 41 -46 41c-24 0 -45 -14 -45 -41c0 -25 21 -39 45 -39zM233 789c31 0 55 17 55 48s-24 50 -55 50c-30 0 -54 -19 -54 -50s24 -48 54 -48z" glyph-name="Udieresis" unicode="Ü" horiz-adv-x="722"/>
<glyph d="M360 151c52 0 106 28 106 85v464h170v-467c0 -154 -132 -243 -276 -243c-143 0 -276 89 -276 243v467h169v-464c0 -57 55 -85 107 -85zM360 65c100 0 198 62 198 171v397h-11v-397c0 -104 -92 -160 -187 -160s-187 56 -187 160v397h-11v-397c0 -109 98 -171 198 -171z M491 750h-66l-65 76l-61 -76h-69l86 106h-10l-87 -106h-56v16l106 143h182l107 -143v-16h-56l-86 106h-11z" glyph-name="Ucircumflex" unicode="Û" horiz-adv-x="722"/>
<glyph d="M360 151c52 0 106 28 106 85v464h170v-467c0 -154 -132 -243 -276 -243c-143 0 -276 89 -276 243v467h169v-464c0 -57 55 -85 107 -85zM360 65c100 0 198 62 198 171v397h-11v-397c0 -104 -92 -160 -187 -160s-187 56 -187 160v397h-11v-397c0 -109 98 -171 198 -171z M387 854l-53 -101h-55v16l76 167l152 -51v-15l-103 -117h-59l53 99z" glyph-name="Uacute" unicode="Ú" horiz-adv-x="722"/>
<glyph d="M360 151c52 0 106 28 106 85v464h170v-467c0 -154 -132 -243 -276 -243c-143 0 -276 89 -276 243v467h169v-464c0 -57 55 -85 107 -85zM360 65c100 0 198 62 198 171v397h-11v-397c0 -104 -92 -160 -187 -160s-187 56 -187 160v397h-11v-397c0 -109 98 -171 198 -171z M377 753l-53 101l-11 -2l53 -99h-59l-103 117v15l152 51l76 -167v-16h-55z" glyph-name="Ugrave" unicode="Ù" horiz-adv-x="722"/>
<glyph d="M360 151c52 0 106 28 106 85v464h170v-467c0 -154 -132 -243 -276 -243c-143 0 -276 89 -276 243v467h169v-464c0 -57 55 -85 107 -85zM360 65c100 0 198 62 198 171v397h-11v-397c0 -104 -92 -160 -187 -160s-187 56 -187 160v397h-11v-397c0 -109 98 -171 198 -171z M228 745c-55 0 -99 36 -99 91c0 57 44 92 99 92s100 -35 100 -92c0 -55 -45 -91 -100 -91zM493 745c-55 0 -99 36 -99 91c0 57 44 92 99 92c56 0 99 -35 99 -92c0 -55 -43 -91 -99 -91zM493 797c25 0 46 14 46 39c0 27 -21 41 -46 41s-45 -14 -45 -41c0 -25 20 -39 45 -39z M493 788c30 0 54 17 54 48s-24 50 -54 50c-31 0 -55 -19 -55 -50s26 -48 55 -48zM228 797c26 0 46 14 46 39c0 27 -20 41 -46 41c-24 0 -45 -14 -45 -41c0 -25 21 -39 45 -39zM228 788c31 0 55 17 55 48s-24 50 -55 50c-30 0 -54 -19 -54 -50s24 -48 54 -48z" glyph-name="udieresis" unicode="ü" horiz-adv-x="722"/>
<glyph d="M360 151c52 0 106 28 106 85v464h170v-467c0 -154 -132 -243 -276 -243c-143 0 -276 89 -276 243v467h169v-464c0 -57 55 -85 107 -85zM360 65c100 0 198 62 198 171v397h-11v-397c0 -104 -92 -160 -187 -160s-187 56 -187 160v397h-11v-397c0 -109 98 -171 198 -171z M491 746h-66l-65 76l-61 -76h-69l86 106h-10l-87 -106h-56v16l106 143h182l107 -143v-16h-56l-86 106h-11z" glyph-name="ucircumflex" unicode="û" horiz-adv-x="722"/>
<glyph d="M360 151c52 0 106 28 106 85v464h170v-467c0 -154 -132 -243 -276 -243c-143 0 -276 89 -276 243v467h169v-464c0 -57 55 -85 107 -85zM360 65c100 0 198 62 198 171v397h-11v-397c0 -104 -92 -160 -187 -160s-187 56 -187 160v397h-11v-397c0 -109 98 -171 198 -171z M398 849l-53 -101h-55v16l76 167l152 -51v-15l-103 -117h-59l53 99z" glyph-name="uacute" unicode="ú" horiz-adv-x="722"/>
<glyph d="M360 151c52 0 106 28 106 85v464h170v-467c0 -154 -132 -243 -276 -243c-143 0 -276 89 -276 243v467h169v-464c0 -57 55 -85 107 -85zM360 65c100 0 198 62 198 171v397h-11v-397c0 -104 -92 -160 -187 -160s-187 56 -187 160v397h-11v-397c0 -109 98 -171 198 -171z M377 749l-53 101l-11 -2l53 -99h-59l-103 117v15l152 51l76 -167v-16h-55z" glyph-name="ugrave" unicode="ù" horiz-adv-x="722"/>
<glyph d="M131 633l196 -316v-250h11v250l196 316h-13l-188 -304l-189 304h-13zM421 294v-294h-177v294l-235 379v27h193l127 -233h7l127 233h194v-27zM354 850l-53 -101h-55v16l76 167l152 -51v-15l-103 -117h-59l53 99z" glyph-name="Yacute" unicode="Ý" horiz-adv-x="665"/>
<glyph d="M131 633l196 -316v-250h11v250l196 316h-13l-188 -304l-189 304h-13zM421 294v-294h-177v294l-235 379v27h193l127 -233h7l127 233h194v-27zM356 847l-53 -101h-55v16l76 167l152 -51v-15l-103 -117h-59l53 99z" glyph-name="yacute" unicode="ý" horiz-adv-x="665"/>
<glyph d="M131 633l196 -316v-250h11v250l196 316h-13l-188 -304l-189 304h-13zM421 294v-294h-177v294l-235 379v27h193l127 -233h7l127 233h194v-27zM200 747c-55 0 -99 36 -99 91c0 57 44 92 99 92s100 -35 100 -92c0 -55 -45 -91 -100 -91zM465 747c-55 0 -99 36 -99 91 c0 57 44 92 99 92c56 0 99 -35 99 -92c0 -55 -43 -91 -99 -91zM465 799c25 0 46 14 46 39c0 27 -21 41 -46 41s-45 -14 -45 -41c0 -25 20 -39 45 -39zM465 790c30 0 54 17 54 48s-24 50 -54 50c-31 0 -55 -19 -55 -50s26 -48 55 -48zM200 799c26 0 46 14 46 39 c0 27 -20 41 -46 41c-24 0 -45 -14 -45 -41c0 -25 21 -39 45 -39zM200 790c31 0 55 17 55 48s-24 50 -55 50c-30 0 -54 -19 -54 -50s24 -48 54 -48z" glyph-name="ydieresis" unicode="ÿ" horiz-adv-x="665"/>
<glyph d="M89 0v700h179v-89h129c335 -1 335 -521 0 -521h-129v-90h-179zM183 535v98h-11v-566h11v98h215c222 2 223 370 0 370h-215zM183 526h215c207 0 210 -349 0 -349h-215v349zM396 251c98 0 104 199 0 200c-42 1 -87 0 -128 0v-200h128z" glyph-name="Thorn" unicode="Þ" horiz-adv-x="694"/>
<glyph d="M89 0v700h179v-89h129c335 -1 335 -521 0 -521h-129v-90h-179zM183 535v98h-11v-566h11v98h215c222 2 223 370 0 370h-215zM183 526h215c207 0 210 -349 0 -349h-215v349zM396 251c98 0 104 199 0 200c-42 1 -87 0 -128 0v-200h128z" glyph-name="thorn" unicode="þ" horiz-adv-x="694"/>
<glyph d="M271 540v-540h-182v700h436v-160h-254zM458 616v9h-284v-557h11v548h273zM349 848l-53 -101h-55v16l76 167l152 -51v-15l-103 -117h-59l53 99z" glyph-name="afii10052" unicode="Ѓ" horiz-adv-x="574"/>
<glyph d="M271 540v-540h-182v700h436v-160h-254zM458 616v9h-284v-557h11v548h273zM349 848l-53 -101h-55v16l76 167l152 -51v-15l-103 -117h-59l53 99z" glyph-name="afii10100" unicode="ѓ" horiz-adv-x="574"/>
<glyph d="M187 346h100c30 0 67 5 96 13l177 -290h12l-180 294c123 42 161 151 160 269h-10c0 -115 -35 -201 -118 -245c-36 -19 -86 -33 -138 -33h-99v278h-13v-563h13v277zM272 0h-182v700h182v-265h13c179 0 170 134 170 265h184c0 -143 4 -275 -135 -364l190 -308v-28h-199 l-154 271c-24 -4 -46 -4 -69 -4v-267zM391 851l-53 -101h-55v16l76 167l152 -51v-15l-103 -117h-59l53 99z" glyph-name="afii10061" unicode="Ќ" horiz-adv-x="708"/>
<glyph d="M672 0h-199v-102h-183v102h-200v700h183v-535h216v535h183v-700zM386 77h201v555h-11v-544h-390v544h-10v-555h199v-111h11v111z" glyph-name="afii10145" unicode="Џ" horiz-adv-x="762"/>
<glyph d="M187 346h100c30 0 67 5 96 13l177 -290h12l-180 294c123 42 161 151 160 269h-10c0 -115 -35 -201 -118 -245c-36 -19 -86 -33 -138 -33h-99v278h-13v-563h13v277zM272 0h-182v700h182v-265h13c179 0 170 134 170 265h184c0 -143 4 -275 -135 -364l190 -308v-28h-199 l-154 271c-24 -4 -46 -4 -69 -4v-267zM391 851l-53 -101h-55v16l76 167l152 -51v-15l-103 -117h-59l53 99z" glyph-name="afii10109" unicode="ќ" horiz-adv-x="708"/>
<glyph d="M672 0h-199v-102h-183v102h-200v700h183v-535h216v535h183v-700zM386 77h201v555h-11v-544h-390v544h-10v-555h199v-111h11v111z" glyph-name="afii10193" unicode="џ" horiz-adv-x="762"/>
<glyph d="M131 633l206 -390l-85 -176h11l276 566h-13l-183 -378l-199 378h-13zM132 0v19l110 226l-236 428v27h200l132 -258h5l120 258h194v-27l-332 -673h-193zM259 919c3 -37 27 -55 69 -55c41 0 68 13 74 55c35 -2 69 -6 103 -10c-4 -112 -64 -171 -175 -171 c-108 0 -171 59 -174 171c34 4 68 8 103 10zM223 861l-10 -1c21 -45 62 -68 117 -66c53 0 98 22 119 66l-10 1c-21 -42 -65 -57 -109 -57c-46 0 -85 14 -107 57z" glyph-name="afii10062" unicode="Ў" horiz-adv-x="665"/>
<glyph d="M131 633l206 -390l-85 -176h11l276 566h-13l-183 -378l-199 378h-13zM132 0v19l110 226l-236 428v27h200l132 -258h5l120 258h194v-27l-332 -673h-193zM259 919c3 -37 27 -55 69 -55c41 0 68 13 74 55c35 -2 69 -6 103 -10c-4 -112 -64 -171 -175 -171 c-108 0 -171 59 -174 171c34 4 68 8 103 10zM223 861l-10 -1c21 -45 62 -68 117 -66c53 0 98 22 119 66l-10 1c-21 -42 -65 -57 -109 -57c-46 0 -85 14 -107 57z" glyph-name="afii10110" unicode="ў" horiz-adv-x="665"/>
<glyph d="M578 700v-467c0 -153 -126 -241 -270 -241s-262 88 -262 241v91h169v-88c0 -55 41 -84 93 -84s87 28 87 84v305h-102v159h285zM134 256h-11v-20c0 -105 81 -169 182 -169c103 0 188 60 188 169v391h-133v-10h122v-381c0 -105 -78 -159 -176 -159c-96 0 -172 58 -172 159 v20z" glyph-name="afii10057" unicode="Ј" horiz-adv-x="662"/>
<glyph d="M525 540h-254v-540h-182v700h285v83h151v-243zM453 616v100h-9v-91h-270v-557h11v548h268z" glyph-name="afii10050" unicode="Ґ" horiz-adv-x="566"/>
<glyph d="M173 626v-552h294v10h-283v273h254v10h-254v249h274v10h-285zM526 700v-160h-259v-99h238v-159h-238v-123h268v-159h-446v700h437zM186 745c-54 0 -97 35 -97 88c0 55 43 90 97 90c53 0 97 -35 97 -90c0 -53 -44 -88 -97 -88zM444 745c-54 0 -97 35 -97 88 c0 55 43 90 97 90s96 -35 96 -90c0 -53 -42 -88 -96 -88zM444 795c24 0 45 14 45 38c0 26 -21 40 -45 40s-44 -14 -44 -40c0 -24 20 -38 44 -38zM444 786c29 0 52 17 52 47s-23 49 -52 49c-30 0 -54 -19 -54 -49s26 -47 54 -47zM186 795c25 0 45 14 45 38 c0 26 -20 40 -45 40c-24 0 -44 -14 -44 -40c0 -24 20 -38 44 -38zM186 786c30 0 53 17 53 47s-23 49 -53 49c-29 0 -53 -19 -53 -49s24 -47 53 -47z" glyph-name="afii10023" unicode="Ё" horiz-adv-x="600"/>
<glyph d="M404 545c-81 0 -144 -47 -167 -121h230v-151h-227c25 -68 85 -116 164 -117c76 0 137 38 156 113h176c-26 -198 -183 -276 -332 -276c-178 -1 -358 119 -359 357c1 238 181 358 359 358c145 0 302 -79 329 -266h-176c-25 71 -78 103 -153 103zM143 345h257v9h-257 c1 174 132 268 261 268c90 0 166 -38 210 -116h12c-46 83 -128 125 -222 125c-135 0 -271 -99 -271 -281c0 -181 136 -281 271 -280c96 0 184 48 226 136h-12c-44 -85 -121 -126 -214 -126c-128 0 -259 94 -261 265z" glyph-name="afii10053" unicode="Є" horiz-adv-x="774"/>
<glyph d="M204 83h-106v-10h220v10h-104v533h96v10h-203v-10h97v-533zM297 157h89v-157h-355v157h89v387h-82v156h341v-156h-82v-387zM77 750c-55 0 -99 36 -99 91c0 57 44 92 99 92s100 -35 100 -92c0 -55 -45 -91 -100 -91zM342 750c-55 0 -99 36 -99 91c0 57 44 92 99 92 c56 0 99 -35 99 -92c0 -55 -43 -91 -99 -91zM342 802c25 0 46 14 46 39c0 27 -21 41 -46 41s-45 -14 -45 -41c0 -25 20 -39 45 -39zM342 793c30 0 54 17 54 48s-24 50 -54 50c-31 0 -55 -19 -55 -50s26 -48 55 -48zM77 802c26 0 46 14 46 39c0 27 -20 41 -46 41 c-24 0 -45 -14 -45 -41c0 -25 21 -39 45 -39zM77 793c31 0 55 17 55 48s-24 50 -55 50c-30 0 -54 -19 -54 -50s24 -48 54 -48z" glyph-name="afii10056" unicode="Ї" horiz-adv-x="414"/>
<glyph d="M204 83h-106v-10h220v10h-104v533h96v10h-203v-10h97v-533zM297 157h89v-157h-355v157h89v387h-82v156h341v-156h-82v-387z" glyph-name="afii10055" unicode="І" horiz-adv-x="414"/>
<glyph d="M204 83h-106v-10h220v10h-104v533h96v10h-203v-10h97v-533zM297 157h89v-157h-355v157h89v387h-82v156h341v-156h-82v-387z" glyph-name="afii10103" unicode="і" horiz-adv-x="414"/>
<glyph d="M525 540h-254v-540h-182v700h285v83h151v-243zM453 616v100h-9v-91h-270v-557h11v548h268z" glyph-name="afii10098" unicode="ґ" horiz-adv-x="566"/>
<glyph d="M173 626v-552h294v10h-283v273h254v10h-254v249h274v10h-285zM526 700v-160h-259v-99h238v-159h-238v-123h268v-159h-446v700h437zM186 745c-54 0 -97 35 -97 88c0 55 43 90 97 90c53 0 97 -35 97 -90c0 -53 -44 -88 -97 -88zM444 745c-54 0 -97 35 -97 88 c0 55 43 90 97 90s96 -35 96 -90c0 -53 -42 -88 -96 -88zM444 795c24 0 45 14 45 38c0 26 -21 40 -45 40s-44 -14 -44 -40c0 -24 20 -38 44 -38zM444 786c29 0 52 17 52 47s-23 49 -52 49c-30 0 -54 -19 -54 -49s26 -47 54 -47zM186 795c25 0 45 14 45 38 c0 26 -20 40 -45 40c-24 0 -44 -14 -44 -40c0 -24 20 -38 44 -38zM186 786c30 0 53 17 53 47s-23 49 -53 49c-29 0 -53 -19 -53 -49s24 -47 53 -47z" glyph-name="afii10071" unicode="ё" horiz-adv-x="600"/>
<glyph d="M404 545c-81 0 -144 -47 -167 -121h230v-151h-227c25 -68 85 -116 164 -117c76 0 137 38 156 113h176c-26 -198 -183 -276 -332 -276c-178 -1 -358 119 -359 357c1 238 181 358 359 358c145 0 302 -79 329 -266h-176c-25 71 -78 103 -153 103zM143 345h257v9h-257 c1 174 132 268 261 268c90 0 166 -38 210 -116h12c-46 83 -128 125 -222 125c-135 0 -271 -99 -271 -281c0 -181 136 -281 271 -280c96 0 184 48 226 136h-12c-44 -85 -121 -126 -214 -126c-128 0 -259 94 -261 265z" glyph-name="afii10101" unicode="є" horiz-adv-x="774"/>
<glyph d="M578 700v-467c0 -153 -126 -241 -270 -241s-262 88 -262 241v91h169v-88c0 -55 41 -84 93 -84s87 28 87 84v305h-102v159h285zM134 256h-11v-20c0 -105 81 -169 182 -169c103 0 188 60 188 169v391h-133v-10h122v-381c0 -105 -78 -159 -176 -159c-96 0 -172 58 -172 159 v20z" glyph-name="afii10105" unicode="ј" horiz-adv-x="662"/>
<glyph d="M213 214c0 -89 219 -87 219 -5c0 49 -58 57 -128 61c-152 11 -252 63 -254 215c-6 302 538 302 534 0h-170c0 93 -188 85 -194 2c-4 -53 48 -64 111 -71c139 -15 275 -33 275 -208c0 -294 -570 -302 -566 6h173zM476 549h13c-75 141 -364 105 -360 -64 c3 -120 87 -138 189 -146c97 -7 194 -9 194 -130c0 -155 -282 -186 -361 -59h-12c72 -143 384 -111 384 59c0 124 -101 133 -203 141c-98 7 -179 23 -179 135c-1 157 260 189 335 64z" glyph-name="afii10054" unicode="Ѕ" horiz-adv-x="648"/>
<glyph d="M213 214c0 -89 219 -87 219 -5c0 49 -58 57 -128 61c-152 11 -252 63 -254 215c-6 302 538 302 534 0h-170c0 93 -188 85 -194 2c-4 -53 48 -64 111 -71c139 -15 275 -33 275 -208c0 -294 -570 -302 -566 6h173zM476 549h13c-75 141 -364 105 -360 -64 c3 -120 87 -138 189 -146c97 -7 194 -9 194 -130c0 -155 -282 -186 -361 -59h-12c72 -143 384 -111 384 59c0 124 -101 133 -203 141c-98 7 -179 23 -179 135c-1 157 260 189 335 64z" glyph-name="afii10102" unicode="ѕ" horiz-adv-x="648"/>
<glyph d="M204 83h-106v-10h220v10h-104v533h96v10h-203v-10h97v-533zM297 157h89v-157h-355v157h89v387h-82v156h341v-156h-82v-387zM77 750c-55 0 -99 36 -99 91c0 57 44 92 99 92s100 -35 100 -92c0 -55 -45 -91 -100 -91zM342 750c-55 0 -99 36 -99 91c0 57 44 92 99 92 c56 0 99 -35 99 -92c0 -55 -43 -91 -99 -91zM342 802c25 0 46 14 46 39c0 27 -21 41 -46 41s-45 -14 -45 -41c0 -25 20 -39 45 -39zM342 793c30 0 54 17 54 48s-24 50 -54 50c-31 0 -55 -19 -55 -50s26 -48 55 -48zM77 802c26 0 46 14 46 39c0 27 -20 41 -46 41 c-24 0 -45 -14 -45 -41c0 -25 21 -39 45 -39zM77 793c31 0 55 17 55 48s-24 50 -55 50c-30 0 -54 -19 -54 -50s24 -48 54 -48z" glyph-name="afii10104" unicode="ї" horiz-adv-x="414"/>
<glyph d="M354 585l-188 -407h379l-190 407h-1zM534 0l-41 88h-276l-41 -88h-175v26l315 683h77l316 -683v-26h-175zM608 68l-251 539h-6l-249 -539h13l47 99h387l46 -99h13zM354 410l74 -161h-146z" glyph-name="bg" unicode="А"/>
<glyph d="M398 85h-215v285h215c210 0 207 -285 0 -285zM396 297h-128v-137h128c99 0 98 137 0 137zM268 455h129c335 0 335 -454 0 -455h-308v700h503v-160h-324v-85zM525 625h-353v-549h226c223 0 222 304 0 306h-215v234h342v9z" glyph-name="afii10018" unicode="Б" horiz-adv-x="694"/>
<glyph d="M387 616h-204v-261h204c72 0 126 59 126 130c0 70 -56 131 -126 131zM606 485c0 -42 -21 -93 -55 -121c57 -29 84 -81 84 -143c-1 -122 -75 -221 -218 -221h-328v700h299c121 0 218 -94 218 -215zM387 625h-214v-551h242c76 0 137 72 137 147c0 66 -51 128 -118 131v4 c51 12 89 77 89 129c0 76 -61 140 -136 140zM415 346h-232v-262h232c69 0 127 66 127 137s-58 125 -127 125zM404 274c72 0 73 -115 1 -115h-143v115h142zM262 540h112c72 0 72 -111 1 -111h-113v111z" glyph-name="afii10019" unicode="В" horiz-adv-x="686"/>
<glyph d="M271 540v-540h-182v700h436v-160h-254zM458 616v9h-284v-557h11v548h273z" glyph-name="afii10020" unicode="Г" horiz-adv-x="561"/>
<glyph d="M82 70h549v-81h11v92h-59l-229 526h-6l-221 -526h-56v-92h11v81zM351 585h1l217 -504h-429zM150 -2v-77h-148v234h71l240 554h77l248 -554h73v-234h-147v77h-414zM351 410l-97 -253h198z" glyph-name="afii10021" unicode="Д"/>
<glyph d="M173 626v-552h294v10h-283v273h254v10h-254v249h274v10h-285zM526 700v-160h-259v-99h238v-159h-238v-123h268v-159h-446v700h437z" glyph-name="afii10022" unicode="Е" horiz-adv-x="600"/>
<glyph d="M398 0v267c-11 0 -24 2 -37 4l-153 -271h-198v28l188 308c-139 89 -134 221 -134 364h183c0 -126 -9 -255 151 -264v264h182v-264c160 9 151 138 151 264h183c0 -143 5 -275 -134 -364l188 -308v-28h-198l-153 271c-13 -2 -26 -4 -37 -4v-267h-182zM483 69h12v276h85 c26 0 58 5 79 13l175 -289h12l-178 293c123 42 160 152 159 270h-10c0 -115 -34 -201 -117 -245c-32 -17 -76 -32 -122 -32h-83v277h-12v-277h-83c-46 0 -90 15 -122 32c-83 44 -117 130 -117 245h-10c-1 -118 36 -228 159 -270l-178 -293h12l175 289c21 -8 53 -13 79 -13 h85v-276z" glyph-name="afii10024" unicode="Ж" horiz-adv-x="982"/>
<glyph d="M222 524h-158c-6 128 98 188 220 188c153 0 229 -101 229 -202c0 -46 -20 -99 -60 -130c70 -38 100 -94 100 -173c0 -123 -89 -219 -269 -219c-152 0 -244 84 -244 240h156c0 -55 36 -89 88 -89c120 0 120 158 0 158h-49v146h47c88 0 86 121 2 121c-39 0 -62 -15 -62 -40 zM128 180h-9c22 -79 83 -118 166 -118c117 0 177 70 180 149c3 70 -43 140 -135 159v1c141 40 142 270 -45 270c-71 0 -118 -26 -136 -69h10c20 43 69 60 126 60c186 0 173 -242 17 -257h-16v-10h16c207 -16 210 -294 -17 -294c-77 0 -137 40 -157 109z" glyph-name="afii10025" unicode="З" horiz-adv-x="598"/>
<glyph d="M507 344l-353 -345h-64v701h183v-343l354 346h65v-703h-185v344zM607 69v490h-11c-137 -135 -272 -266 -409 -401v474h-11v-491h8c140 134 271 267 411 401v-473h12z" glyph-name="afii10026" unicode="И" horiz-adv-x="782"/>
<glyph d="M159 -1l353 345v-344h185v703h-65l-354 -346v343h-183v-701h64zM612 559v-490h-12v473c-140 -134 -271 -267 -411 -401h-8v491h11v-474c137 135 272 266 409 401h11zM351 919c3 -37 27 -55 69 -55c41 0 68 13 74 55c35 -2 69 -6 103 -10c-4 -112 -64 -171 -175 -171 c-108 0 -171 59 -174 171c34 4 68 8 103 10zM315 861l-10 -1c21 -45 62 -68 117 -66c53 0 98 22 119 66l-10 1c-21 -42 -65 -57 -109 -57c-46 0 -85 14 -107 57z" glyph-name="afii10027" unicode="Й" horiz-adv-x="780"/>
<glyph d="M187 346h100c30 0 67 5 96 13l177 -290h12l-180 294c123 42 161 151 160 269h-10c0 -115 -35 -201 -118 -245c-36 -19 -86 -33 -138 -33h-99v278h-13v-563h13v277zM272 0h-182v700h182v-265h13c179 0 170 134 170 265h184c0 -143 4 -275 -135 -364l190 -308v-28h-199 l-154 271c-24 -4 -46 -4 -69 -4v-267z" glyph-name="afii10028" unicode="К" horiz-adv-x="708"/>
<glyph d="M354 410l-178 -410h-175v26l315 683h77l316 -683v-26h-175zM115 68l239 517h1l240 -517h13l-251 539h-6l-249 -539h13z" glyph-name="afii10029" unicode="Л"/>
<glyph d="M428 398l279 304h64v-702h-183v312l-149 -156h-20l-148 156v-312h-183v702h66zM675 69h10v464h-14l-243 -256l-240 256h-13v-464h10v451l243 -258l247 258v-451z" glyph-name="afii10030" unicode="М" horiz-adv-x="860"/>
<glyph d="M672 700v-700h-183v281h-216v-281h-183v700h183v-254h216v254h183zM175 68h11v289h390v-289h10v565h-10v-264h-390v264h-11v-565z" glyph-name="afii10031" unicode="Н" horiz-adv-x="762"/>
<glyph d="M134 349c0 -376 543 -376 543 0s-543 375 -543 0zM764 349c0 -485 -718 -485 -718 0c0 484 718 484 718 0zM230 349c0 252 351 252 351 0c0 -254 -351 -254 -351 0zM667 349c0 358 -523 365 -523 0c0 -366 523 -359 523 0z" glyph-name="afii10032" unicode="О" horiz-adv-x="810"/>
<glyph d="M672 700v-700h-183v535h-216v-535h-183v700h582zM175 68h11v544h390v-544h10v555h-411v-555z" glyph-name="afii10033" unicode="П" horiz-adv-x="762"/>
<glyph d="M398 254c222 2 223 370 0 370h-226v-557h11v187h215zM268 0h-179v700h308c335 -1 335 -521 0 -521h-129v-179zM183 615h215c207 0 210 -349 0 -349h-215v349zM396 340c98 0 104 199 0 200c-42 1 -87 0 -128 0v-200h128z" glyph-name="afii10034" unicode="Р" horiz-adv-x="694"/>
<glyph d="M47 350c1 238 181 358 359 358c145 0 302 -79 329 -266h-176c-25 71 -78 103 -153 103c-105 0 -174 -79 -174 -195c0 -103 68 -193 174 -194c76 0 137 38 156 113h176c-26 -198 -183 -276 -332 -276c-178 -1 -358 119 -359 357zM632 206h-12c-44 -85 -121 -126 -214 -126 c-129 0 -261 96 -261 270c0 175 132 272 261 272c90 0 166 -38 210 -116h12c-46 83 -128 125 -222 125c-135 0 -271 -99 -271 -281c0 -181 136 -281 271 -280c96 0 184 48 226 136z" glyph-name="afii10035" unicode="С" horiz-adv-x="786"/>
<glyph d="M192 540h-172v160h520v-160h-171v-540h-177v540zM276 67h9v549h187v9h-385v-9h189v-549z" glyph-name="afii10036" unicode="Т" horiz-adv-x="562"/>
<glyph d="M131 633l206 -390l-85 -176h11l276 566h-13l-183 -378l-199 378h-13zM132 0v19l110 226l-236 428v27h200l132 -258h5l120 258h194v-27l-332 -673h-193z" glyph-name="afii10037" unicode="У" horiz-adv-x="665"/>
<glyph d="M779 351c0 -168 -125 -207 -256 -207h-57v413h57c131 0 256 -38 256 -206zM693 351c0 100 -72 126 -149 129v-259c73 4 149 30 149 130zM143 351c0 168 125 206 256 206h57v-413h-57c-131 0 -256 39 -256 207zM229 351c0 -100 76 -126 149 -130v259 c-77 -3 -149 -29 -149 -129zM376 -3v59c-181 6 -330 77 -330 295c0 217 148 287 329 293v59h172v-59c181 -6 329 -76 329 -293c0 -218 -149 -289 -330 -295v-59h-170zM461 73h5v60h59c135 -1 264 42 264 218c0 177 -130 218 -266 217h-57v58h-10v-58h-57 c-136 1 -266 -40 -266 -217c0 -176 129 -219 264 -218h59v-60h5z" glyph-name="afii10038" unicode="Ф" horiz-adv-x="922"/>
<glyph d="M336 383l-165 250h-11l171 -262l-197 -304h14l188 292l189 -292h12l-196 304l170 262h-11zM339 220h-6l-128 -220h-193v27l226 344l-202 302v27h186l111 -182h5l112 182h185v-27l-202 -302l227 -344v-27h-193z" glyph-name="afii10039" unicode="Х" horiz-adv-x="673"/>
<glyph d="M89 0v700h183v-535h203v535h183v-545h71v-234h-147v79h-493zM175 77h475v-88h10v99h-87v544h-11v-544h-377v544h-10v-555z" glyph-name="afii10040" unicode="Ц" horiz-adv-x="749"/>
<glyph d="M608 0h-182v244h-36c-243 0 -331 124 -331 370v86h184v-86c0 -119 9 -200 148 -200h35v286h182v-700zM145 632v-19c0 -189 64 -290 244 -290h122v-254h13v563h-13v-299h-121c-183 0 -233 111 -233 280v19h-12z" glyph-name="afii10041" unicode="Ч" horiz-adv-x="697"/>
<glyph d="M90 0v700h183v-535h169v535h183v-535h169v535h183v-700h-887zM892 632h-11v-544h-342v544h-11v-544h-341v544h-11v-555h716v555z" glyph-name="afii10042" unicode="Ш" horiz-adv-x="1066"/>
<glyph d="M90 0v700h183v-535h169v535h183v-535h169v535h183v-545h71v-234h-147v79h-811zM176 632v-555h793v-88h10v99h-87v544h-11v-544h-342v544h-11v-544h-341v544h-11z" glyph-name="afii10043" unicode="Щ" horiz-adv-x="1066"/>
<glyph d="M425 85h-215v319h215c210 0 207 -319 0 -319zM423 330h-128v-170c41 0 86 -1 128 0c104 1 98 170 0 170zM11 700h284v-209h129c335 0 335 -490 0 -491h-308v540h-105v160zM78 616h121v-540h226c223 0 222 338 0 340h-215v210h-132v-10z" glyph-name="afii10044" unicode="Ъ" horiz-adv-x="721"/>
<glyph d="M398 416h-215v217h-11v-557h226c223 0 222 338 0 340zM89 700h179v-209h129c335 0 335 -490 0 -491h-308v700zM398 85h-215v319h215c210 0 207 -319 0 -319zM396 330h-128v-170c41 0 86 -1 128 0c104 1 98 170 0 170zM780 0v700h179v-700h-179zM874 67v566h-11v-566h11z " glyph-name="afii10045" unicode="Ы" horiz-adv-x="1048"/>
<glyph d="M398 416h-215v217h-11v-557h226c223 0 222 338 0 340zM268 700v-209h129c335 0 335 -490 0 -491h-308v700h179zM398 85h-215v319h215c210 0 207 -319 0 -319zM396 330h-128v-170c41 0 86 -1 128 0c104 1 98 170 0 170z" glyph-name="afii10046" unicode="Ь" horiz-adv-x="694"/>
<glyph d="M373 545c-75 0 -128 -32 -153 -103h-176c27 187 184 266 329 266c178 0 358 -120 359 -358c-1 -238 -181 -358 -359 -357c-149 0 -306 78 -332 276h176c19 -75 80 -113 156 -113c79 1 139 49 164 117h-227v151h230c-23 74 -86 121 -167 121zM377 345h257 c-2 -171 -133 -265 -261 -265c-93 0 -170 41 -214 126h-12c42 -88 130 -136 226 -136c135 -1 271 99 271 280c0 182 -136 281 -271 281c-94 0 -176 -42 -222 -125h12c44 78 120 116 210 116c129 0 260 -94 261 -268h-257v-9z" glyph-name="afii10047" unicode="Э" horiz-adv-x="776"/>
<glyph d="M1069 349c0 -461 -647 -483 -711 -68h-86v-281h-183v700h183v-254h91c86 388 706 354 706 -97zM439 357v-8c0 -376 543 -376 543 0c0 370 -527 378 -543 20h-254v264h-11v-565h11v289h254zM972 349c0 358 -523 365 -523 0c0 -366 523 -359 523 0zM535 349 c0 252 351 252 351 0c0 -254 -351 -254 -351 0z" glyph-name="afii10048" unicode="Ю" horiz-adv-x="1115"/>
<glyph d="M304 615h215v-323h-215c-211 0 -208 323 0 323zM304 281h215v-214h10v557h-225c-214 0 -220 -309 -31 -340l-30 -53l-101 -165h12l130 216c6 0 13 -1 20 -1zM20 26l137 222c-177 120 -127 451 148 452h307v-700h-179v206h-93l-120 -206h-200v26zM305 367h128v173 c-42 0 -86 1 -128 0c-102 -1 -97 -173 0 -173z" glyph-name="afii10049" unicode="Я" horiz-adv-x="701"/>
<glyph d="M354 585l-188 -407h379l-190 407h-1zM534 0l-41 88h-276l-41 -88h-175v26l315 683h77l316 -683v-26h-175zM608 68l-251 539h-6l-249 -539h13l47 99h387l46 -99h13zM354 410l74 -161h-146z" glyph-name="afii10065" unicode="а"/>
<glyph d="M398 85h-215v285h215c210 0 207 -285 0 -285zM396 297h-128v-137h128c99 0 98 137 0 137zM268 455h129c335 0 335 -454 0 -455h-308v700h503v-160h-324v-85zM525 625h-353v-549h226c223 0 222 304 0 306h-215v234h342v9z" glyph-name="afii10066" unicode="б" horiz-adv-x="694"/>
<glyph d="M387 616h-204v-261h204c72 0 126 59 126 130c0 70 -56 131 -126 131zM606 485c0 -42 -21 -93 -55 -121c57 -29 84 -81 84 -143c-1 -122 -75 -221 -218 -221h-328v700h299c121 0 218 -94 218 -215zM387 625h-214v-551h242c76 0 137 72 137 147c0 66 -51 128 -118 131v4 c51 12 89 77 89 129c0 76 -61 140 -136 140zM415 346h-232v-262h232c69 0 127 66 127 137s-58 125 -127 125zM404 274c72 0 73 -115 1 -115h-143v115h142zM262 540h112c72 0 72 -111 1 -111h-113v111z" glyph-name="afii10067" unicode="в" horiz-adv-x="686"/>
<glyph d="M271 540v-540h-182v700h436v-160h-254zM458 616v9h-284v-557h11v548h273z" glyph-name="afii10068" unicode="г" horiz-adv-x="561"/>
<glyph d="M82 70h549v-81h11v92h-59l-229 526h-6l-221 -526h-56v-92h11v81zM351 585h1l217 -504h-429zM150 -2v-77h-148v234h71l240 554h77l248 -554h73v-234h-147v77h-414zM351 410l-97 -253h198z" glyph-name="afii10069" unicode="д"/>
<glyph d="M173 626v-552h294v10h-283v273h254v10h-254v249h274v10h-285zM526 700v-160h-259v-99h238v-159h-238v-123h268v-159h-446v700h437z" glyph-name="afii10070" unicode="е" horiz-adv-x="600"/>
<glyph d="M398 0v267c-11 0 -24 2 -37 4l-153 -271h-198v28l188 308c-139 89 -134 221 -134 364h183c0 -126 -9 -255 151 -264v264h182v-264c160 9 151 138 151 264h183c0 -143 5 -275 -134 -364l188 -308v-28h-198l-153 271c-13 -2 -26 -4 -37 -4v-267h-182zM483 69h12v276h85 c26 0 58 5 79 13l175 -289h12l-178 293c123 42 160 152 159 270h-10c0 -115 -34 -201 -117 -245c-32 -17 -76 -32 -122 -32h-83v277h-12v-277h-83c-46 0 -90 15 -122 32c-83 44 -117 130 -117 245h-10c-1 -118 36 -228 159 -270l-178 -293h12l175 289c21 -8 53 -13 79 -13 h85v-276z" glyph-name="afii10072" unicode="ж" horiz-adv-x="982"/>
<glyph d="M229 524h-158c-6 128 98 188 220 188c153 0 229 -101 229 -202c0 -46 -20 -99 -60 -130c70 -38 100 -94 100 -173c0 -123 -89 -219 -269 -219c-152 0 -244 84 -244 240h156c0 -55 36 -89 88 -89c120 0 120 158 0 158h-49v146h47c88 0 86 121 2 121c-39 0 -62 -15 -62 -40 zM135 180h-9c22 -79 83 -118 166 -118c117 0 177 70 180 149c3 70 -43 140 -135 159v1c141 40 142 270 -45 270c-71 0 -118 -26 -136 -69h10c20 43 69 60 126 60c186 0 173 -242 17 -257h-16v-10h16c207 -16 210 -294 -17 -294c-77 0 -137 40 -157 109z" glyph-name="afii10073" unicode="з" horiz-adv-x="607"/>
<glyph d="M507 344l-353 -345h-64v701h183v-343l354 346h65v-703h-185v344zM607 69v490h-11c-137 -135 -272 -266 -409 -401v474h-11v-491h8c140 134 271 267 411 401v-473h12z" glyph-name="afii10074" unicode="и" horiz-adv-x="782"/>
<glyph d="M159 -1l353 345v-344h185v703h-65l-354 -346v343h-183v-701h64zM612 559v-490h-12v473c-140 -134 -271 -267 -411 -401h-8v491h11v-474c137 135 272 266 409 401h11zM351 919c3 -37 27 -55 69 -55c41 0 68 13 74 55c35 -2 69 -6 103 -10c-4 -112 -64 -171 -175 -171 c-108 0 -171 59 -174 171c34 4 68 8 103 10zM315 861l-10 -1c21 -45 62 -68 117 -66c53 0 98 22 119 66l-10 1c-21 -42 -65 -57 -109 -57c-46 0 -85 14 -107 57z" glyph-name="afii10075" unicode="й" horiz-adv-x="780"/>
<glyph d="M187 346h100c30 0 67 5 96 13l177 -290h12l-180 294c123 42 161 151 160 269h-10c0 -115 -35 -201 -118 -245c-36 -19 -86 -33 -138 -33h-99v278h-13v-563h13v277zM272 0h-182v700h182v-265h13c179 0 170 134 170 265h184c0 -143 4 -275 -135 -364l190 -308v-28h-199 l-154 271c-24 -4 -46 -4 -69 -4v-267z" glyph-name="afii10076" unicode="к" horiz-adv-x="708"/>
<glyph d="M354 410l-178 -410h-175v26l315 683h77l316 -683v-26h-175zM115 68l239 517h1l240 -517h13l-251 539h-6l-249 -539h13z" glyph-name="afii10077" unicode="л"/>
<glyph d="M428 398l279 304h64v-702h-183v312l-149 -156h-20l-148 156v-312h-183v702h66zM675 69h10v464h-14l-243 -256l-240 256h-13v-464h10v451l243 -258l247 258v-451z" glyph-name="afii10078" unicode="м" horiz-adv-x="860"/>
<glyph d="M672 700v-700h-183v281h-216v-281h-183v700h183v-254h216v254h183zM175 68h11v289h390v-289h10v565h-10v-264h-390v264h-11v-565z" glyph-name="afii10079" unicode="н" horiz-adv-x="762"/>
<glyph d="M134 349c0 -376 543 -376 543 0s-543 375 -543 0zM764 349c0 -485 -718 -485 -718 0c0 484 718 484 718 0zM230 349c0 252 351 252 351 0c0 -254 -351 -254 -351 0zM667 349c0 358 -523 365 -523 0c0 -366 523 -359 523 0z" glyph-name="afii10080" unicode="о" horiz-adv-x="810"/>
<glyph d="M672 700v-700h-183v535h-216v-535h-183v700h582zM175 68h11v544h390v-544h10v555h-411v-555z" glyph-name="afii10081" unicode="п" horiz-adv-x="762"/>
<glyph d="M398 254c222 2 223 370 0 370h-226v-557h11v187h215zM268 0h-179v700h308c335 -1 335 -521 0 -521h-129v-179zM183 615h215c207 0 210 -349 0 -349h-215v349zM396 340c98 0 104 199 0 200c-42 1 -87 0 -128 0v-200h128z" glyph-name="afii10082" unicode="р" horiz-adv-x="694"/>
<glyph d="M47 350c1 238 181 358 359 358c145 0 302 -79 329 -266h-176c-25 71 -78 103 -153 103c-105 0 -174 -79 -174 -195c0 -103 68 -193 174 -194c76 0 137 38 156 113h176c-26 -198 -183 -276 -332 -276c-178 -1 -358 119 -359 357zM632 206h-12c-44 -85 -121 -126 -214 -126 c-129 0 -261 96 -261 270c0 175 132 272 261 272c90 0 166 -38 210 -116h12c-46 83 -128 125 -222 125c-135 0 -271 -99 -271 -281c0 -181 136 -281 271 -280c96 0 184 48 226 136z" glyph-name="afii10083" unicode="с" horiz-adv-x="786"/>
<glyph d="M192 540h-172v160h520v-160h-171v-540h-177v540zM276 67h9v549h187v9h-385v-9h189v-549z" glyph-name="afii10084" unicode="т" horiz-adv-x="562"/>
<glyph d="M131 633l206 -390l-85 -176h11l276 566h-13l-183 -378l-199 378h-13zM132 0v19l110 226l-236 428v27h200l132 -258h5l120 258h194v-27l-332 -673h-193z" glyph-name="afii10085" unicode="у" horiz-adv-x="665"/>
<glyph d="M779 351c0 -168 -125 -207 -256 -207h-57v413h57c131 0 256 -38 256 -206zM693 351c0 100 -72 126 -149 129v-259c73 4 149 30 149 130zM143 351c0 168 125 206 256 206h57v-413h-57c-131 0 -256 39 -256 207zM229 351c0 -100 76 -126 149 -130v259 c-77 -3 -149 -29 -149 -129zM376 -3v59c-181 6 -330 77 -330 295c0 217 148 287 329 293v59h172v-59c181 -6 329 -76 329 -293c0 -218 -149 -289 -330 -295v-59h-170zM461 73h5v60h59c135 -1 264 42 264 218c0 177 -130 218 -266 217h-57v58h-10v-58h-57 c-136 1 -266 -40 -266 -217c0 -176 129 -219 264 -218h59v-60h5z" glyph-name="afii10086" unicode="ф" horiz-adv-x="922"/>
<glyph d="M336 383l-165 250h-11l171 -262l-197 -304h14l188 292l189 -292h12l-196 304l170 262h-11zM339 220h-6l-128 -220h-193v27l226 344l-202 302v27h186l111 -182h5l112 182h185v-27l-202 -302l227 -344v-27h-193z" glyph-name="afii10087" unicode="х" horiz-adv-x="673"/>
<glyph d="M89 0v700h183v-535h203v535h183v-545h71v-234h-147v79h-493zM175 77h475v-88h10v99h-87v544h-11v-544h-377v544h-10v-555z" glyph-name="afii10088" unicode="ц" horiz-adv-x="749"/>
<glyph d="M608 0h-182v244h-36c-243 0 -331 124 -331 370v86h184v-86c0 -119 9 -200 148 -200h35v286h182v-700zM145 632v-19c0 -189 64 -290 244 -290h122v-254h13v563h-13v-299h-121c-183 0 -233 111 -233 280v19h-12z" glyph-name="afii10089" unicode="ч" horiz-adv-x="697"/>
<glyph d="M90 0v700h183v-535h169v535h183v-535h169v535h183v-700h-887zM892 632h-11v-544h-342v544h-11v-544h-341v544h-11v-555h716v555z" glyph-name="afii10090" unicode="ш" horiz-adv-x="1066"/>
<glyph d="M90 0v700h183v-535h169v535h183v-535h169v535h183v-545h71v-234h-147v79h-811zM176 632v-555h793v-88h10v99h-87v544h-11v-544h-342v544h-11v-544h-341v544h-11z" glyph-name="afii10091" unicode="щ" horiz-adv-x="1066"/>
<glyph d="M431 85h-215v319h215c210 0 207 -319 0 -319zM429 330h-128v-170c41 0 86 -1 128 0c104 1 98 170 0 170zM17 700h284v-209h129c335 0 335 -490 0 -491h-308v540h-105v160zM84 616h121v-540h226c223 0 222 338 0 340h-215v210h-132v-10z" glyph-name="afii10092" unicode="ъ" horiz-adv-x="727"/>
<glyph d="M398 416h-215v217h-11v-557h226c223 0 222 338 0 340zM89 700h179v-209h129c335 0 335 -490 0 -491h-308v700zM398 85h-215v319h215c210 0 207 -319 0 -319zM396 330h-128v-170c41 0 86 -1 128 0c104 1 98 170 0 170zM780 0v700h179v-700h-179zM874 67v566h-11v-566h11z " glyph-name="afii10093" unicode="ы" horiz-adv-x="1048"/>
<glyph d="M398 416h-215v217h-11v-557h226c223 0 222 338 0 340zM268 700v-209h129c335 0 335 -490 0 -491h-308v700h179zM398 85h-215v319h215c210 0 207 -319 0 -319zM396 330h-128v-170c41 0 86 -1 128 0c104 1 98 170 0 170z" glyph-name="afii10094" unicode="ь" horiz-adv-x="694"/>
<glyph d="M373 545c-75 0 -128 -32 -153 -103h-176c27 187 184 266 329 266c178 0 358 -120 359 -358c-1 -238 -181 -358 -359 -357c-149 0 -306 78 -332 276h176c19 -75 80 -113 156 -113c79 1 139 49 164 117h-227v151h230c-23 74 -86 121 -167 121zM377 345h257 c-2 -171 -133 -265 -261 -265c-93 0 -170 41 -214 126h-12c42 -88 130 -136 226 -136c135 -1 271 99 271 280c0 182 -136 281 -271 281c-94 0 -176 -42 -222 -125h12c44 78 120 116 210 116c129 0 260 -94 261 -268h-257v-9z" glyph-name="afii10095" unicode="э" horiz-adv-x="776"/>
<glyph d="M1069 349c0 -461 -647 -483 -711 -68h-86v-281h-183v700h183v-254h91c86 388 706 354 706 -97zM439 357v-8c0 -376 543 -376 543 0c0 370 -527 378 -543 20h-254v264h-11v-565h11v289h254zM972 349c0 358 -523 365 -523 0c0 -366 523 -359 523 0zM535 349 c0 252 351 252 351 0c0 -254 -351 -254 -351 0z" glyph-name="afii10096" unicode="ю" horiz-adv-x="1115"/>
<glyph d="M304 615h215v-323h-215c-211 0 -208 323 0 323zM304 281h215v-214h10v557h-225c-214 0 -220 -309 -31 -340l-30 -53l-101 -165h12l130 216c6 0 13 -1 20 -1zM20 26l137 222c-177 120 -127 451 148 452h307v-700h-179v206h-93l-120 -206h-200v26zM305 367h128v173 c-42 0 -86 1 -128 0c-102 -1 -97 -173 0 -173z" glyph-name="gb" unicode="я" horiz-adv-x="701"/>
<glyph d="M672 700v-700h-183v281h-216v-281h-183v700h183v-254h216v254h183zM175 68h11v289h390v-289h10v565h-10v-264h-390v264h-11v-565z" glyph-name="H" unicode="H" horiz-adv-x="762"/>
</font>
</defs>
</svg>
